<svg xmlns="http://www.w3.org/2000/svg" version="1.1" xmlns:xlink="http://www.w3.org/1999/xlink" xmlns:svgjs="http://svgjs.dev/svgjs" width="1000" height="1000"><style>
    #light-icon {
      display: inline;
    }
    #dark-icon {
      display: none;
    }

    @media (prefers-color-scheme: dark) {
      #light-icon {
        display: none;
      }
      #dark-icon {
        display: inline;
      }
    }
  </style><g id="light-icon"><svg xmlns="http://www.w3.org/2000/svg" version="1.1" xmlns:xlink="http://www.w3.org/1999/xlink" xmlns:svgjs="http://svgjs.dev/svgjs" width="1000" height="1000"><g><g transform="matrix(1.6080531300754177,0,0,1.6080531300754177,0,50.324022705710206)"><svg xmlns="http://www.w3.org/2000/svg" version="1.1" xmlns:xlink="http://www.w3.org/1999/xlink" xmlns:svgjs="http://svgjs.dev/svgjs" width="621.87" height="559.28"><svg xmlns="http://www.w3.org/2000/svg" xmlns:xlink="http://www.w3.org/1999/xlink" id="Layer_1" version="1.1" viewBox="214.72 212.34 621.87 559.28">
  <!-- Generator: Adobe Illustrator 29.1.0, SVG Export Plug-In . SVG Version: 2.1.0 Build 142)  -->
  <defs>
    <style>
      .st0 {
        fill: #3dc5dc;
      }

      .st1 {
        fill: #1596bc;
      }

      .st2 {
        fill: #0c262d;
      }

      .st3 {
        fill: url(#radial-gradient);
      }

      .st4 {
        fill: #cd3335;
      }
    </style>
    <radialGradient id="radial-gradient" cx="525.61" cy="395.2" fx="525.61" fy="395.2" r="215.62" gradientUnits="userSpaceOnUse">
      <stop offset="0" stop-color="#f8ec32"></stop>
      <stop offset=".35" stop-color="#faad3e"></stop>
      <stop offset=".69" stop-color="#f6911d"></stop>
      <stop offset="1" stop-color="#f05a29"></stop>
    </radialGradient>
  </defs>
  <path class="st3" d="M283.94,562.35l23.4-3.02c-3.39-5.26-8.13-10.33-10.64-16.12-1.01.11-.6-.08-.71-.71-.04-.22.05-.51,0-.71-1.12-.02-1.72-2.53-2.13-3.55-2.67-6.64-5.63-16.14-6.04-23.21-.14-2.35-.33-8.14.1-10.21.34-1.65,2.99-4.38,4.51-5.07,3.28-1.49,4.51.2,7.23,1.32,12.93,5.33,25.85,10.78,39.39,14.47,12.94-8.01,26.33-15.27,39.45-22.95.29-.17.57.08.46-.61-.12-.71-4.64-6.79-5.51-8.33-2.04-3.64-3.99-8.15-5.24-12.13-.26-.83,0-1.92-.67-2.17-2.48-.55-5.05-.08-7.55-.25-15.96-1.07-31.84-3.16-47.85-3.56-6.84-.17-13.74.29-20.58.01-.43-.02-1.32.27-1.24-.35,4.61-.59,9.34-1.03,13.91-1.87,17.71-3.24,36.05-9.24,53.72-13.28,4.36-1,8.75-1.92,13.22-2.38,1.25-.4,1.82-2.74,2.53-3.85,3.99-6.28,8.5-11.85,14.46-16.38.16-.76-.31-.47-.78-.62-4.32-1.4-8.79-1.89-13.14-3.54-23.77-9.03-46.49-19.76-70.64-27.21l-3-1.42c5.47,1.09,11,2.02,16.53,2.79,19.21,2.67,38.39,3.12,57.75,3.22l23,1.8,4.82-15.47-.36-1.04c-6.37-3.68-12.58-8.26-18.25-12.94-11.09-9.17-21.7-19.85-32.99-28.7-5.43-4.26-11.54-7.62-16.83-12.06,4.37,1.42,8.49,3.74,12.77,5.49,23.25,9.47,47.87,15.64,70.1,27.42l1.06-.2,12.17-11.95c.41-.48.46-1.11.26-1.7l-8.99-15.48-35.95-58.52c.67-.15.84.38,1.24.71,4.49,3.73,8.86,8.63,13.29,12.59,14.29,12.78,29.74,25.59,44.87,37.38,1.19.93,8.92,7.16,9.5,7.05,4.62-4.08,10.11-6.74,15.43-9.73l-18.39-80.26,7.03,13c11.27,19.77,24.34,38.41,36.06,57.91.66.58,4.31-.75,5.42-.96,3.82-.72,7.62-1.39,11.54-1.22l14.4-82.55,12.78,81.87c3.89-.05,7.77.55,11.55,1.39,1.52.34,6.02,2.27,7.07,1.49,16.13-22.17,29.41-46.28,42.27-70.47l1.13-.82-18.75,81.5c4.68.83,8.57,3.08,12.18,6.07,1.07.88,2.78,3.52,4.07,3.01,1.56-.62,6.1-4.44,7.78-5.71,17.87-13.53,36.09-29.26,52.51-44.63,2.18-2.04,4.31-4.7,6.55-6.56.4-.33.57-.86,1.24-.71.17.17-1.82,3.28-2.12,3.73-8.89,13.55-19.16,28.17-25.84,42.94-.34.76-2.21,4.65-1.82,5.09.71,0,1.4-.65,1.94-1.07,11.06-8.57,18.73-19.62,34.93-15.77,14.72,3.5,23.04,16.73,29.64,29.22l11.48-6-10.23,9.47c1.29,4.93,2.91,8.57,1.47,13.85-1.59,5.85-9.91,12.96-15.89,13.54-.97.09-4.58-.31-4.78-.18-.5.32-.3.47-.19.9.59,2.37,2.19,4.43,1.34,6.99-1.28,3.86-11.58,6.5-15.11,8.29-.92.65-1.61,3.57-2.33,4.76-1.6,2.61-4.54,3.79-7,5.41l-7.19,3.97c1.91.02,3.68-.73,5.54-1.01,16.24-2.42,32.58-.78,48.87-1.82,12.7-.82,25.14-3.79,37.63-4.92.4-.04,1.27-.33,1.19.31-21.66,7.12-43.19,14.62-64.61,22.42-4.43,1.61-8.71,3.72-13.19,5.24-5.65,1.92-11.47,3.24-17.16,5,.25,3.53,1.5,6.87,1.73,10.42.13,1.97-.39,5.79.07,7.37.17.58.62.84,1.18.95,2.42.45,6.49-.14,9.2.01,17.92,1.03,36.12,8.48,53.87,10.98,8.74-5.62,17.95-10.56,26.62-16.29,4.51-2.98,9.55-7.43,14.11-9.99,2.9-1.63,5.17-2.58,7.66-.1,4.83,4.8,4.89,24.94,4.64,31.9-.6,17.05-3.59,34.89-9.59,51.41h0s0,0,0,0c-4.23,11.65-9.94,22.64-17.38,32.23-3.86,4.97-8.43,9.32-12.4,14.19l34.39,2.66c4.2-12.57,7.31-25.3,9.39-38.1,1.08-6.7,1.89-13.41,2.42-20.13,1.59-20.23.68-40.49-2.54-60.38-.58-3.63-1.24-7.24-1.98-10.84-5.51-26.94-15.23-53.08-28.64-77.42-4.08-7.41-8.5-14.64-13.25-21.68-3.99-5.93-8.21-11.72-12.66-17.35-11.33-14.35-24.45-27.21-38.88-38.39-3.44-2.69-6.95-5.27-10.53-7.74-22.74-15.78-48.21-27.71-74.74-35.33-26.48-7.61-53.76-10.82-81.26-9.47-1.91.1-4.27-.26-6.07-.04-.67.09-.34.68-1.01.77-1.15.14-2.17-.42-2.83-.39-.24.01-.03.65-.71.74-1.5.21-2.9-.39-4.23-.36-2.48.06-5.24.83-7.22,1.38-3.13.87-7.87.9-10.87,1.48-38.22,7.33-71.8,20.7-100.99,41.22-3.53,2.47-6.99,5.05-10.39,7.74-17.62,13.94-33.53,30.73-47.8,50.65-1.21,1.69-2.4,3.38-3.57,5.09-4.85,7.08-9.35,14.31-13.48,21.68-7.68,13.68-14.1,27.82-19.22,42.29-.11.32-.23.65-.34.97-.37,1.06-.73,2.12-1.08,3.18-16.92,50.72-17.91,105.41-.72,159.02ZM715.21,335.47c.23.12.23.24,0,.35v-.35ZM667,276.63c.36.32-.54.9-.53.53l.53-.53ZM601.23,244.36h-.35c-.18-1.47.52-1.47.35,0Z"></path>
  <path class="st1" d="M516.13,688.22c4.23-.34,8.38-.68,12.43-1.01l7.07-15.77c-1.18.36-2.36.72-3.54,1.08l-15.96,15.7Z"></path>
  <path class="st1" d="M436.99,691.34c0,1.13-.04,2.23-.1,3.33,2.49-.2,5.04-.41,7.63-.62-.02-.55-.04-1.09-.04-1.64-.01-2.15.12-4.28.38-6.38-2.72-.03-5.43-.11-8.14-.25.18,1.82.28,3.67.28,5.57Z"></path>
  <path class="st1" d="M494.51,683.99c-2.87,0-4.1.91-4.78,1.59-1.09,1.11-1.87,2.94-2.15,4.96,5.44-.44,10.87-.89,16.24-1.32l-2.47-2.37c-2.11-2.03-4.09-2.86-6.84-2.86Z"></path>
  <path class="st1" d="M597.63,678.74c1.35-.41,2.71-.8,4.07-1.18v-26.74c-4.92,1.28-9.82,2.68-14.7,4.14l10.63,23.78Z"></path>
  <path class="st1" d="M685.4,636.82c-11.99-1.54-23.82-2.04-35.96-1.79-.17.59-.48,1.02-.04,1.61,1.08,1.44,7.62,1.52,9.68,2.04,1.68.42,3,1.46,4.81,1.55l1.85,2.24c-4.39.18-8.91-.24-13.29,0-1.77.1-3.99.96-4.94,1.09-1.7.22-3.89-.18-5.69-.02-4.36.38-8.68.92-12.97,1.58h7.08l11.63,15.05v-15.05h43.28v14.07c7.18-8.03,17.37-13.35,29.68-15.12-2.86-.61-5.55-1.71-8.4-2.42-8.65-2.15-18-3.71-26.72-4.83Z"></path>
  <path class="st0" d="M690.92,617.3c-.45-1.87,1.38-.57,1.97-1.39,1.13-1.57-3.14-4.7-4.1-6.23-1.64-2.63-3.16-5.54-5.17-7.95-.91-1.09-4.76-2.58-4.4-3.74.39-1.28,4.44.05,5.5.17,11.62,1.33,23.03,3.76,34.2,7.27,8.01,2.52,16.32,5.59,23.4,10.1,8.66-13.69,14.18-24.7,20.21-39.71-12.06-1.98-24.25-3.55-36.51-3.19-.16.66.23.69.59,1,1.86,1.61,6.01,3.35,8.38,5.09,3.99,2.91,8.82,7.58,12.12,11.27.85.94,2.16,2.4,2.47,3.55-3.89-1.44-7.36-4-11.28-5.74-5.66-2.51-12.5-4.21-18.23-5.58-2.01-.48-4.58-1.03-6.39-1.41-37.67-8.05-76.65-9.44-114.94-5.7l-.71.35c-.1.08-2.06.03-2.48,0l-.71.35c-.08.06-1.77.03-2.13,0l-.71.35c-.1.07-2.06.03-2.48,0l-.71.35c-.17.13-3.87.4-4.25.35l-.71.35c-.07.05-1.47.02-1.77,0l-.71.35c-.27.21-5.75.59-6.74.71h-.35c-.6.05-1.11.46-2.13.35-.17.46-.68.34-1.06.35-.79.03-1.7.06-2.48,0-.17.46-.68.34-1.06.35-.57.02-1.21.04-1.77,0-.17.46-.67.34-1.06.35-.79.03-1.7.06-2.48,0l-.71.35c-.07.05-1.47.02-1.77,0l-.71.35c-.11.09-2.37.03-2.84,0l-.71.35c-.05.05-1.19.03-1.42,0-.46.07-.96.32-1.42.35-.75.06-1.73.05-2.48,0-.17.46-.68.34-1.06.35-.57.02-1.21.04-1.77,0-.17.46-.68.34-1.06.35-.68.02-1.45.05-2.13,0-.46.06-.98.33-1.42.35-.46.02-.96.03-1.42,0l-.71.35c-.2.15-4.53.41-4.96.35l-.71.35c-.09.06-1.78.03-2.13,0l-.71.35c-.07.05-1.48.04-1.77,0-.17.46-.67.34-1.06.35-.79.03-1.7.06-2.48,0l-.71.35c-.11.09-2.37.03-2.84,0-.25.53-.95.34-1.42.35-.92.02-1.93.06-2.84,0-.17.46-.68.34-1.06.35-.58.02-1.2.04-1.77,0-.3.57-1.2.34-1.77.35-.93.02-1.92.06-2.84,0-.25.53-.95.34-1.42.35-.81.02-1.68.05-2.48,0-.39.59-1.46.35-2.13.35-1.84.02-3.85.1-5.67,0-.48.62-1.7.35-2.48.35-1.41.01-2.85-.06-4.25,0-.72.03-2.05.32-3.19.35-2.82.1-5.68-.06-8.51,0-4.19.08-8.24.12-12.41,0-2.47-.07-4.97.05-7.44,0-.57-.01-1.47.21-1.77-.35-1.22.08-2.67.05-3.9,0-.39-.02-.89.11-1.06-.35-1.34.09-2.89.03-4.25,0-.47-.01-1.17.18-1.42-.35-.67.05-1.45.03-2.13,0-.39-.02-.89.11-1.06-.35-.99.07-2.18.04-3.19,0-.39-.02-.89.11-1.06-.35-.42.03-2.38.07-2.48,0l-.71-.35c-.79.06-1.68.02-2.48,0-.47-.01-1.17.18-1.42-.35-.45.03-.96.02-1.42,0-.39-.02-.89.11-1.06-.35-.56.04-1.21.03-1.77,0-.39-.02-.89.11-1.06-.35-.45.03-.96.02-1.42,0-.39-.02-.89.11-1.06-.35-.35.03-2.04.06-2.13,0l-.71-.35c-.24.04-1.36.05-1.42,0l-.71-.35c-.56.04-1.21.03-1.77,0-.39-.02-.89.11-1.06-.35-3.7.1-8.96-2.16-12.88-2.15-.66,1.5-1.58,2.87-2.36,4.28l-.35.35c-.57.99-.78,2.33-1.77,3.55,0,.71-.35,1.1-1.06,1.06-.51.87-.61.82-1.06,1.42l-.35.35c-2.43,3.08-5.29,6.57-8.15,9.22-.09.83-.08,1.16.57,1.73,1.94,1.71,6.81,2.54,9.25,3.87,1.17.64,2.01,1.82,3.3,2.55-.53-.73-.47-.91.46-.63,24.89,7.41,50.94,6.47,76.64,5.58,4.23-.15,8.56-.08,12.77-.34,10.26-.63,20.49-1.9,30.67-3.19l-.22,1.09c-5.81,3.94-12.18,6.17-18.97,7.9-12.41,3.17-25.78,4.73-38.59,4.84.03.15.03.26.03.36h9.53v1.91c2.03-1.45,4.79-2.28,8.05-2.28,3.84,0,6.88.98,9.55,3.09l2.67,2.1-3.97,5.07c3.34,2.37,3.83,5.76,3.83,7.53,0,.73-.08,1.42-.22,2.09,4.7.16,9.2.92,13.47,2.28,22.39-5.16,44.57-12.79,66.66-18.36,39.59-9.98,73.54-14.49,114.44-10.17Z"></path>
  <path class="st0" d="M475.08,639.79l.1-.12s-.07-.09-.11-.13c0,.08,0,.17,0,.25Z"></path>
  <path class="st1" d="M684.72,598.16c-1.06-.12-5.1-1.44-5.5-.17-.36,1.17,3.49,2.65,4.4,3.74,2.01,2.41,3.53,5.32,5.17,7.95.96,1.54,5.23,4.67,4.1,6.23-.59.82-2.42-.47-1.97,1.39,1.06.11,2.2-.09,3.32.05,13.53,1.58,27.46,4.79,39.93,10.23,2.77-3.95,5.51-7.87,8.15-12.05-7.07-4.51-15.39-7.58-23.4-10.1-11.17-3.51-22.58-5.95-34.2-7.27Z"></path>
  <path class="st1" d="M325.42,572.28c-.45.04-1.19.14-1.42-.35-.82.06-1.66-.01-2.48,0-2.38.04-4.92-.34-7.09-.35-1.89,0-3.79-.01-5.67,0-2.25.01-5.01.3-7.44.35-1.77.04-3.55-.03-5.32,0-.7.01-1.96.39-3.19.35-.47-.01-.95.03-1.42,0-.58.62-1.96.36-2.84.35-.35,0-.71,0-1.06,0,.06.11-.01.92.18,1.4,4.06,10.42,9.25,24.25,14.88,33.71.33.56.42,1.09,1.25,1.05-.87-5.81.41-15.66,3.61-20.67,4.23-6.61,12.98-10.3,18.72-15.14v-.71c-.23.03-.48-.02-.71,0Z"></path>
  <path class="st0" d="M320.33,633.09c.51.78,1.04,1.55,1.6,2.3h4.24c-1.75-.67-4.32-1.96-5.84-2.85v.55Z"></path>
  <path class="st1" d="M466.87,623.69c-6.59.05-13.62-.41-20.21-1.06.22,1.05-.91,1.11-.71,0-15.42-1.66-28.51-6.52-41.83-14.18-1.28-.74-2.13-1.92-3.3-2.55-2.44-1.32-7.31-2.16-9.25-3.87-.65-.57-.66-.91-.57-1.73-7.04,6.51-15.58,13.11-23.23,19.13-1.95,1.54-4.14,3.09-6.38,4.65h.08l5.28,11.81v-11.81h13.13c3.6,0,6.36,1.26,8.23,3.14v-3.14h13.13c3.6,0,6.36,1.26,8.23,3.14v-3.14h55.9v-.03h1.54c0-.1,0-.21-.03-.36Z"></path>
  <path class="st1" d="M474.31,638.62h-8.95v-3.1h-1.3v15.27h-12.41v-15.27h-6.07v15.27h-12.41v-15.27h-1.38v.09h-.57v3.63h.97v11.56h-18.25c1.38.72,2.71,1.5,3.98,2.34,9.23.86,18.45,1.16,28.04,1.04.39,0,1.01,0,1.42,0,1.86-.03,3.62-.29,5.32-.35.27-.01.77.04,1.42,0,1.25-.07,2.43-.29,3.55-.35.15,0,.82.03,1.42,0,.82-.05,1.66.02,2.48,0,.48-.01.97.08,1.44-.02,3.24-2.48,6.81-4.5,10.66-6.07-.2-.19-.39-.38-.59-.58l-2.14-2.25,4.15-4.76c0-.08,0-.17,0-.25-.27-.29-.53-.59-.76-.92Z"></path>
  <path class="st0" d="M647.52,643.57c.95-.12,3.18-.99,4.94-1.09,4.38-.25,8.9.18,13.29,0l-1.85-2.24c-1.8-.09-3.13-1.13-4.81-1.55-2.06-.52-8.61-.61-9.68-2.04-.44-.59-.13-1.02.04-1.61-.36-.02-.84.05-1.06.35-.08.11.1.63,0,.7-.2.14-4.67.97-3.54-.7-.35.02-2.66.62-2.84.71-.03.01.09.48-.07.62-.25.22-3.31.12-4.02.09-.68-.03-1.42.36-1.23-.71-17.3.94-35.51,5.43-53.38,10.62l3.69,8.25c4.89-1.46,9.78-2.85,14.7-4.14v-5.7h27.16c4.3-.66,8.62-1.2,12.97-1.58,1.81-.16,3.99.25,5.69.02Z"></path>
  <path class="st0" d="M538.03,666.07l3.05-6.8c-2.63.72-5.26,1.43-7.86,2.11l4.81,4.69Z"></path>
  <path class="st0" d="M535.63,671.43l1.92-4.29-5.46,5.37c1.18-.36,2.36-.72,3.54-1.08Z"></path>
  <path class="st0" d="M434.04,673.76c1.36,3.75,2.26,7.77,2.68,12.01,2.71.14,5.42.22,8.14.25.5-4.18,1.51-8.26,2.98-12.11-4.58.06-9.18,0-13.8-.15Z"></path>
  <path class="st1" d="M637.91,636.8c.71.03,3.77.13,4.02-.09.16-.14.04-.6.07-.62-.33-.03-1.25-.48-1.42-.35-.03.03.14.69-.22.74-.47.07-.77-.38-.84-.39-.88-.06-1.95-.05-2.84,0-.2,1.07.54.68,1.23.71Z"></path>
  <path class="st1" d="M648.38,636.08c.1-.07-.07-.59,0-.7-1.17.05-2.37-.07-3.55,0-1.13,1.67,3.34.84,3.54.7Z"></path>
  <path class="st0" d="M640.58,635.74l-1.06.35c.07,0,.37.46.84.39.36-.06.19-.72.22-.74Z"></path>
  <path class="st0" d="M445.95,622.62c-.2,1.11.93,1.05.71,0-.23-.02-.48.02-.71,0Z"></path>
  <path class="st2" d="M657.71,354.63c-.11.03-.2.08-.29.12.03-.07.05-.15.09-.21-.09-.07.35-.94-.86-.71-2.48.49-.37,3.11-.56,4.61.01-.01.06,0,.13,0v.02s.03-.01.04-.01c.16.01.38-.01.5-.22.43-.27.65-.69.77-1.16.28-.73.23-1.66.18-2.44Z"></path>
  <path class="st2" d="M320.33,635.6h-.57v3.63h.97v5.89h2.23c-.84-1.76-1.28-3.88-1.28-6.32v-3.32c-.47-.63-.92-1.28-1.35-1.94v2.06Z"></path>
  <path class="st2" d="M303.7,609.09c-.84.04-.93-.49-1.26-1.05-5.62-9.45-10.81-23.28-14.87-33.7-.19-.48-.12-1.3-.18-1.41-2.2-3.98-2.19-6.04-3.54-10.28-3.94-12.29-6.93-24.64-8.99-36.98-1.12-6.72-1.96-13.43-2.54-20.13-1.74-20.32-1-40.54,2.11-60.38.57-3.63,1.21-7.24,1.94-10.84,2.11-10.46,4.88-20.8,8.29-30.98.36-1.06.71-2.12,1.08-3.18.11-.32.23-.65.34-.97,5.12-14.47,11.54-28.61,19.22-42.29,4.13-7.37,8.63-14.6,13.48-21.68,1.17-1.71,2.36-3.4,3.57-5.09,14.27-19.92,30.18-36.71,47.8-50.65,3.4-2.69,6.86-5.27,10.39-7.74,29.19-20.52,62.77-33.89,100.99-41.22,3-.58,7.74-.61,10.87-1.48,1.98-.55,4.74-1.32,7.22-1.38,1.33-.03,2.73.57,4.23.36.68-.09.47-.73.71-.74.66-.03,1.68.53,2.83.39.67-.09.34-.68,1.01-.77,1.8-.22,4.16.14,6.07.04,27.5-1.35,54.78,1.86,81.26,9.47,26.53,7.62,52,19.55,74.74,35.33,3.58,2.47,7.09,5.05,10.53,7.74,14.43,11.18,27.55,24.04,38.88,38.39,4.45,5.63,8.67,11.42,12.66,17.35,4.75,7.04,9.17,14.27,13.25,21.68,13.41,24.34,23.13,50.48,28.64,77.42.74,3.6,1.4,7.21,1.98,10.84,3.22,19.89,4.13,40.15,2.54,60.38-.53,6.72-1.34,13.43-2.42,20.13-2.08,12.8-5.19,25.53-9.39,38.1-.03.1-.06.2-.1.3-.31.91-.62,1.81-.94,2.69-1.16,3.19-2.4,6.2-3.66,9.36-6.03,15.01-11.55,26.02-20.21,39.71-2.65,4.18-5.38,8.1-8.16,12.05-3.86,5.51-7.82,10.77-12.24,16.03,2.58-.32,5.25-.49,8-.49,3.15,0,6.19.21,9.12.63,34.65-45.23,55.25-101.79,55.25-163.16,0-148.32-120.24-268.55-268.56-268.55s-268.55,120.23-268.55,268.55c0,52.65,15.16,101.75,41.34,143.2h12.04c-3.47-4.45-5.99-9.69-6.78-14.99Z"></path>
  <path class="st2" d="M607.01,384.69c-.23-1.06-1.28-2.87-2.43-4.69-1.34-2.47-2.92-5.22-3.9-6.79-.87-1.91-2.04-4.24-2.87-4.1-.72.13-1.51,1.91-1.72,2.03-.48.27-1.54-.16-1.89.41-.31.48.04,1.98-.71,2.13-.54.12-2.52-1.18-4.18-.64-1.07.36-.22,1.28-.31,1.86-.23,1.43-3.43.81-4.53.93-.17.17.73,1.89-.24,2.5-1.61,1.02-2.75-.47-3.12-.38-.36.08-.4,1.05-.77,1.1-.51.07-1.37-.62-1.84-.35-.64.37-1,3.04-1.12,3.15-.25.22-1.36-.42-1.41-.35v1.77c-1.89.52-.34-1.74-2.13-1.77.44,2.08-1.44,3.84-3.42,3.9-1.65.04-3.14-2.46-2.69,2.05.21,2.02-3.19.87-4.53.78-.57,1.05-1.21.36-1.42.36-.23,0-.47-.01-.71,0v.71c.01,1.57.15,2.21-1.97,2.09-.61-.04-1.21-.99-1.87-.61-1.99,2.6-4.38,3.85-5.02,7.38l.35.18-.35.53c-.02.35,0,.71,0,1.06.01.69-.07,1.47,0,2.13.02.23-.03.48,0,.71.02.19.27.69.35,1.06.37,1.64.83,2.7,1.64,3.65,1.08,1.71,2.75,3.07,5.01,3.79,1.69.53,3.17-.89,4.59,1.71,2.21-3.02,2.12-3.43,6.01-2.11v-2.84s4.25,1.42,4.25,1.42v-1.85c.15-.46.09-.96,0-1.43v-.96l6.37-.72v-4.24s5,.41,5,.41l.68-3.96c4.15,1,7.19.83,7.08-4.24l4.24,1.41v-4.24s4.25,1.41,4.25,1.41l.66-3.94,5-.31c.15-.73-.03-1.22-.28-1.83,0-.08-.03-.17-.05-.27ZM600.59,377.94c-.66,1.45-9.43,7.74-11.4,9.16-6.07,4.4-14.01,10.38-20.35,14.04-1.63.94-5.35,3.12-7.22,1.63l-.22-2.06,1.69-.99h0c.01.07.04.14.11.21,1.23-.1,2.57-.84,3.66-1.41.32-.17.21-.7.24-.72.11-.07.7,0,1.05-.17,5.2-2.59,9.54-5.39,14.23-8.84.17-.12,1.1-.34.77-.79h0s17.49-10.22,17.49-10.22c-.02.06-.04.12-.06.16Z"></path>
  <path class="st2" d="M603.96,357.56c-2.47,1.39-5.87,4.09-4.88,7.38.02.06.05.12.09.18.01.32.07.64.19.94,1.2,1.21,2.3,2.94,3.4,4.89.01.03.03.06.05.09.16.34.34.67.52.99.06.11.12.21.19.32.01.03.02.05.04.07,2.54,4.79,5.11,10.48,8.65,13.57.02.04.05.09.08.13.04.02.08.04.12.06t.02.01c2.02,1.68,4.35,2.51,7.16,1.87,1.04-.24,6.82-4.27,7.36-5.02.86-1.2,1.22-3.92.39-5.24-.01,0-.02-.02-.03-.03-.06-.43-.16-.79-.33-1.02l-7.19-10.89c-1.64-2.87-3.26-5.55-4.77-7.22l-1.16-1.75c-3.2-2.9-6.67-1.15-9.9.67ZM609.03,363.15c-.09-.04-.18-.08-.26-.13v-1.01c.82-.15,1.54.21,1.89.83-.13.49-.62.74-1.63.31Z"></path>
  <path class="st2" d="M661.93,352.42l.18-.35c-.16-.05-.33-.32-.71-.35-.04.6-.13.83.53.7Z"></path>
  <path class="st2" d="M664.01,353.97l.23.23c-.05-.09-.15-.16-.23-.23Z"></path>
  <path class="st2" d="M663.61,352.86l.27.28c-.07-.13-.17-.2-.27-.28Z"></path>
  <path class="st2" d="M402.79,566.18h0c.02-.29.03-.56.04-.84,2.47-1.27,4.87-2.7,7.22-4.22h0c2.64-1.68,5.21-3.47,7.75-5.23,2.93-2.03,11.12-9.1,13.43-9.97,2.15-.81,4.19,1.79,7.04,1.48,7.99-.86,25.15-12.55,22.61-22.42,24.84-14.85,47.48-33.05,71.18-49.55,10.85-7.55,23.03-16.37,34.27-23.08,3.57-2.13,6.78-4.86,9.85-1.03.2.25.4.52.6.83-2.35,7.99-16.08,28.36-24.93,27.88-2.15-.12-2.94-.73-3.04-1.59-.19-1.7,2.32-4.39,2.6-6.32.16-1.11.01-1.21-1.08-1.08-1.01,1.02-3.52,2.18-6.18,3.46-3.67,1.75-7.63,3.73-8.29,5.84-.11.31-.14.61-.09.92.09.61,8.54,6.68,9.75,7.35,1.89,1.06,4.93,2.75,7.03,2.95,9.26.88,19.96-13.18,24.2-20.29,3.06-5.14,6.67-16.42,9.74-20,4.61-5.38,16.54-9.11,17.97-18.14.17-1.11.02-2.36-.2-3.56-.12-.65-.27-1.28-.4-1.87-.31-1.39-.52-2.53-.13-3.05l30.83-21.61c6.85,4.52,29.41-9.76,30.69-15.33.36-1.59.27-3.82.09-5.46,0-.02,0-.04-.01-.06-.14-.96-1.27-3.05-1.14-4.32h0c.05-.51.3-.87.87-.99,2.2-.46,4.34,4.77,6.46,5.55,1.73-.09,9.92-4.07,8.04-6.25l-.31-.13-3.47-1.47.16-.68.79-3.39-.53-.14-3.73-.94.35-.77.82-1.81.26-.57h0s-4.25-2.51-4.25-2.51l.4-.33.93-.78.08-1s-.04-.09-.07-.14c-.75-1.22-4.46-3.05-5.19-3.74-.16-.16.04-.65.05-.98.01-.11-.01-.19-.05-.25-.05-.06-.09-.12-.14-.18-.41-.53-.77-1.01-1.12-1.45-.11-.14-.22-.27-.32-.39-1.03-1.16-2.15-1.86-4.47-1.72l-1.46,9.3-.22,1.35-.1.67c-1.45-2.48-6.99-9.52-7.35-11.84-.08-.48-.06-.8.04-1.09.09-.28.27-.54.52-.91,1.26-1.84,8.15-6.75,10.34-8.79,1.48-1.39,3.47-2.99,3.89-4.97l1.31.32.1.03c-.03.14-.05.28-.08.42-.73,4.4,1.52,3.68,3.46,4.66-.17.21-.61.16-.63.21-.56.82,1.16,1.16,2.08,1.1.36.52.7,1.16.96,1.86h.01c.09.9.06,1.78.11,2.69.05.02.09.04.13.04.08.02.14.02.19,0,.04,0,.07-.02.09-.03-.01.38-.07.74-.19,1.06-.08,0-.15,0-.22-.01,0,.16,0,.31,0,.46-.06.11-.14.2-.22.29l1.02,1.02,2.98-.63.21-.04-.18.9-.32,1.64-.13.69.79.39.6.3-.6,1.95-.15.49c1.7-.29,3.23.04,4.02.81,0,0,0,.01.01.01.66.64.79,1.59.06,2.71-.14.23-.33.47-.55.72,1.13-.16,2.17.65,3.14,1.82.19.23.38.48.57.73.87,1.18,1.7,2.56,2.51,3.67.45.62.9,1.16,1.35,1.52h.01c.53.43,1.05.62,1.59.43.96-.33,8.11-5.88,8.85-6.79,1.59-1.96,1.89-4.61,1.53-7.41v-.05c-.54-4.08-2.47-8.44-3.84-11.39-7.39-15.85-20.52-29.26-38.85-19.47-6.86,3.67-13.73,8.83-17.58,15.69-9.24-8.64-28.95,2.62-24.21,14.51.17.44.38.87.62,1.31,2.61,4.72,7.85,10.54,11.48,15.93.01.02.02.03.03.04,1.37,2.05,2.51,4.03,3.19,5.87.03.07.06.13.08.2,0,.01.01.03.01.04.16.43.29.84.4,1.24,0,.02,0,.03.01.03,3.14,11.33-9.2,11.07-16.26,14.78-3.38,1.78-13.02,8.69-16.44,11.18-1.7,1.23-8.32,8.05-9,8.33-1.74.71-4.18-.21-6.71.74-1.37.52-15.14,9.93-16.45,11.16-2.13,1.99-1.31,5.84-2.64,7.46-37.74,24.61-74.64,50.45-110.52,77.69l-18.21-4.11c-.12-.23-.23-.46-.34-.69,0,0-.01,0-.01,0-5.13-10.23-8.48-21.37-13.19-31.76-1.17-2.57-2.42-5.09-3.8-7.54l.26-.13,12.61-6.32.66.48c.98,7.94,3.68,15.94,6.64,23.31,1.24,3.08,3.01,7.23,4.88,11.16,1.53,3.2,3.11,6.25,4.54,8.46.51.8,1.32,2.51,2.52,2.29l20.86-16.69,51.11-32.12,2.92-2.33c1.47-.98,3-1.9,3.9-2.87.17-.19.32-.4.46-.61l12.7-10.13c.06.12.11.24.17.35l5.73-4.23c-.06-.23-.12-.45-.19-.68-.91-3.2-2.09-6.26-3.56-9.13-.27-.54-.56-1.07-.85-1.6-.1-.17-.2-.35-.3-.52-.13-.23-.26-.45-.4-.67l-.21-.36c-.04-.06-.08-.12-.11-.18-4.32-6.95-10.45-12.56-18.38-16.02-3.14-1.37-17.49-5.21-18.55-6.95l-.03-.63-.32-7.87c17.4,1.9,10.45-9.94,13.57-18.66.5-1.41,2.53-1.02,3.11-1.84.37-.53.45-1.26.33-2.12-.53-3.67-4.74-9.68-5.8-12.3-.7-1.72-2.4-5.83-2.58-7.4-.01-.13-.03-.26-.04-.39-.37-5.05,3.5-7.86,1.88-10.56-.8-1.36-2.99-2.69-7.8-4.27-10.22-3.35-19.89-3.87-30.05.06-13.77,5.32-19.66,20.54-14.94,34.31,2.8,8.17,7.99,8.01,3.52,18-6.43,14.36-17.99,9.22-29.88,11.89-10.19,2.29-18.09,7.48-22.78,16.87-.77,1.54-1.35,5.11-2.18,5.97-.99,1.04-7.57,3.47-9.67,4.84-9.45,6.19-26.49,27.32-26.32,38.88.14,8.63,7.05,19.47,12.13,26.17,2.21,2.92,4.6,5.67,7.09,8.33.06.06.12.12.17.18,3.49,3.72,7.16,7.27,10.75,10.88.39.39.78.78,1.15,1.17,5.4,5.46,10.55,11.11,14.62,17.72-.03.47-5.62,5.87-6.57,6.69-3.24,2.82-19.52,15.38-22.52,16.5-1.8.67-9.57-.51-12.79-.11-9,1.11-35.97,18.82-44.7,24.68-13.12,8.81-28.15,16.32-21.61,35.1,1.77,5.08,6.03,9.9,11.22,13.19,1.69,1.08,3.48,1.99,5.32,2.69v-4.14h17.73v2.52c9.38-6.01,26.41-19.87,31.24-23.86,11.87-9.82,23.73-19.96,24.52-36.56ZM646.94,339.66c7.58-8.98,19.4-19.85,31.17-11.24,4.3,3.16,3.74,7.53,5.58,12.12,2.6,6.5,8.45,11.99,9.26,19.03.09.79.12,1.6.07,2.44-.33-.38-.66-.77-.99-1.16-.19-.22-.37-.45-.56-.68-4.25-5.22-8.27-11.67-11.31-17.51-.79-1.5-4.5-8.55-4.65-9.44-.03-.15-.01-.31.03-.49.13-.71.66-1.55.47-1.82-.04-.05-.24-.16-.55-.3-1.64-.72-6.36-2.35-7.06-2.45-6.94-.96-14.14,8.61-19.78,11.75-.62.35-1.78,1.56-2.33.51.21-.25.42-.51.65-.76ZM621.51,352.1c-.04-.49-.04-.96.01-1.41.71-7.44,12.21-10.64,17.95-7.71,2.64,1.35,15.61,21.25,18.01,25.18,1.83,3,4.07,6.63,4.89,10,.94,3.87.03,7.41-5.45,9.34-.07-.55.07-.99.33-1.36.64-.97,2.01-1.55,2.34-2.68.48-1.58.24-3.59-.18-5.19-.07-.28-.25-.71-.51-1.25-.01-.03-.02-.05-.03-.08-2.91-6.06-15.71-26.15-18.26-28.73-6.7-6.79-13.86-1.47-19.1,3.89ZM596.9,416.12c.16-.84.77-1.81,2-2.73,2.17-1.65,22.13-13.31,23.83-13.69,1.25-.28,2.54-.19,3.81-.17.21.02.42.02.63.02l-26.39,18.58c-2.41,1.04-4.23-.19-3.88-2.01ZM571.24,427.87c5.47-.96,9.16,2,12.88,5.24.69.98,1.28,2,2.3,2.63.5-1.02-.81-3.13-1.75-3.48,0-.01-.01-.02-.02-.03-.14-.22-.3-.44-.48-.68-1.99-2.67-5.71-6.24-7.27-5.82-.11-.51-.04-.88.13-1.19.2-.34.53-.61.92-.93,5.35-4.43,10.97,5.56,14.52,8.5-.07-.28-.15-.56-.25-.85-.75-2.39-2.21-5.06-3.7-6.88-1.1-1.34-5.05-3.73-4.5-5.25.05-.18.18-.35.38-.5,3.03-2.3,12.02,4.72,13.48,10.61.01.03.01.05.02.08.37,1.57.2,3.06-.77,4.26-1.42,1.77-14.53,10.06-16.31,9.88-1.79-.58-2.59-2.04-3.16-3.73-.4-1.19-.67-2.49-1.09-3.69-.22-.62-.47-1.21-.8-1.74-1.1-1.77-3.51-2.89-4.29-4.77-.21-.49-.31-1.04-.24-1.66ZM459.73,513.56c5.19-4.72,14.26-10.77,20.22-15.18,28.23-20.88,58.14-39.59,86.85-59.79,1.3-.39,2.22.07,3.02.87.24.24.47.5.69.79-37.44,25.27-74.43,51.5-111.1,77.96-1.69-.02-2.28-.49-2.27-1.15.02-1.03,1.52-2.53,2.59-3.5ZM487.66,368.78c.2-1.43,1.89-2.39,2.51-3.92,1.14-2.78,1.59-7.75,3.57-9.89.97-1.04,10.31-6.09,13.07-6.5.35-.05.59-.03.7.08.06,4.85,1.16,8.94,3.05,12.82.9,1.87,2,3.69,3.26,5.53.23.35.47.69.72,1.04-6.84,4.04-2.62,9.13-3.8,15.36-5.47,1.85-12.15.3-16.7-3.22-2.01-1.54-4.91-5.24-5.98-8.44-.05-.11-.08-.21-.11-.31-.28-.92-.4-1.79-.29-2.55ZM482.73,379.72l5.64,8.15,1.87,1.48,3.95,3.15,3.01,2.38,1.14.91-2,17.97-.15,1.36c2.46-1.09,4.82-6.91,7.39-7.05.41-.02,1.48.29,2.93.8,1.13,4.82,1.31,13.71-13.35,12.29-13.8-1.34-19.16-9.36-21.15-14.2,4.1,1.24,8.07,2.85,12.06,4.67.72.33,1.45.67,2.18,1.02.24.11.48.22.72.34-2.15-10.96-4.75-22.02-4.24-33.27ZM418.98,513.2c-2.43-2.99-5.85-6.46-9.62-10.24-.05-.04-.09-.09-.13-.13-2.9-2.9-5.99-6-8.99-9.21-.26-.28-.52-.57-.78-.85-3.04-3.29-5.95-6.71-8.42-10.17-.23-.31-.45-.63-.66-.94-4.75-6.87-7.7-13.9-6.46-20.55,1.57-8.46,16.41-25.23,24.19-28.91.38-.18.73-.34,1.06-.48,5.91,4.49,13.72,11.09,18.1,17.49-5.85,4.82-12.37,8.03-19.86,7.6-2.85-.17-9.39-3.28-10.99-.39-.04.04-.06.08-.08.12,5.24,2.26,9.21,5.83,12.4,10.15.03.05.06.09.09.13,7.48,10.24,10.61,24.63,15.71,35.87.94,2.05,3.22,7.48,5.36,9.79.51.57,1.03.95,1.51,1.04,3.82.74,6.99-.41,11.64,1.1,2.91.94,6.94,3.66,9.39,6.93,2.01,2.69,2.94,5.75,1.29,8.49-.65,1.09-13.22,8.29-14.85,8.63-1.64.36-2.59-1.46-3.46-3.35-.5-1.12-.98-2.27-1.55-3.01-.16-.22-.34-.42-.52-.62-2.05-2.26-5-3.47-6.85-5.48-.69-.75-1.27-1.62-1.81-2.56-.2-.34-.39-.7-.58-1.06-1.52-2.98-2.78-6.49-5.13-9.39ZM401.52,554.47c8.13-5.69,16.21-11.58,23.84-17.93l1.69.57h0s.45.16.45.16c.42,1.65-1.5,2.91-2.51,3.86-10.77,10.15-31.94,24.14-44.71,33.17-8.23,5.82-17.26,12.08-25.77,17.42-1.14.71-7.87,5.16-8.44,4.66.64-.65,1.3-1.29,1.96-1.91,5.05-4.84,10.62-9.34,16.12-13.64,12.1-9.44,24.88-17.61,37.37-26.36ZM342.72,620.29c-5.96,3.1-14.27,1.39-18.48-3.85-.06-.07-.11-.14-.17-.21-5.36-6.77-7.21-14.15-.69-20.94,6.29-6.53,25.28-18.5,33.65-23.71,7.12-4.42,14.47-8.5,22.43-11.21.08-.03.17-.06.25-.09,1.11.68-.17,1.59-.72,2.11-7.37,6.85-22.78,15.03-31.73,21.38-4.83,3.43-20.27,13.56-23.16,17.19-3.33,4.17-2.35,10.21.8,14.29.9,1.18,2,2.2,3.23,2.96,3.72,2.31,6.01,1.66,9.93.26,8.38-3.01,43.04-29.7,49.44-36.95.9-1.02,1.92-2.32,2.62-3.64.12-.22.22-.44.32-.66.04-.09.07-.18.1-.27h0c.06-.14.11-.26.15-.39,1.34-.12.64,1.43.32,2.1-1.08,2.23-4.95,6.97-6.78,8.8-11.67,11.64-29.5,20.99-41.51,32.83ZM336.19,611.64c-2.4,2.43-4.96,1.7-6.5-.05,0,0-.01,0-.02-.01-2.03-2.32-2.27-6.41,2.05-7.29,1.71-.34,3.19.07,4.24.89,1.88,1.48,2.36,4.3.23,6.46Z"></path>
  <path class="st4" d="M764.49,457.83v-.02c-.05-5.8-.46-11.57-1.38-17.2-.85-.2-1.27.26-1.9.56-10.16,4.73-23.07,14.87-33.72,20.8-64.17,35.71-135.61,54.27-208.58,61.73l-2.59.26-47.7,4.85c-1.64,2.35-2.28,5.14-3.71,7.62-.67,1.16-1.38,1.97-1.74,2.51-.7,1.02-.14,1.09,4.33.79,45.23-3,89.92-7.9,134.05-18.18,54.03-12.58,107.51-31.36,152.72-63.95.05.54.06,1.09.01,1.63h0c-.56,9.58-13.21,18.73-20.39,24.02-72.98,53.74-186.19,65.9-274.21,69.91-9.12.42-18.45,2.38-27.54.72-3.01,2.88-6.82,5.31-10.58,7.73h0c-3.3,2.12-6.55,4.21-9.15,6.58-.49.45-1.05.57-1.21,1.11-.07.21-.07.49.02.88,13.8,1.07,27.58,3.41,41.39,4.28,68.59,4.32,135.45-16,203.95-12.77,11.3.54,23.98,2.29,35.32,3.63,3.71.43,13.91,2.67,18.23,2.57.56,0,1.02-.05,1.36-.15,2.22-.65,11.86-8.61,14.14-10.65.29-.26.58-.52.86-.79,21.46-19.53,33.08-46.36,36.57-75.07.93-7.65,1.53-15.55,1.46-23.4Z"></path>
  <path class="st2" d="M515.26,522.75c-1.9-4.93.19-23.22.38-27.34,0-.1.01-.2.01-.28l-47.03,33.68,47.7-4.85c-.45-.08-.8-.51-1.06-1.21Z"></path>
  <path class="st4" d="M296.88,508.58c-1.7.32-.53,9.2-.29,10.89.04.29.08.57.13.86,1.37,8.73,4.99,17.59,9.91,25.35.27.42.54.84.81,1.25.01.02.03.05.05.07,1.77,2.67,3.69,5.2,5.73,7.54.02.03.04.05.06.08.42.48.84.95,1.27,1.41,2.57,2.78,4.91,4.41,7.28,5.46,4.64,2.06,9.34,1.82,15.87,3.46h.01c.34.08.68.17,1.02.26l32.12-16.97c-.35-.04-.71-.09-1.07-.15h-.01c-2.49-.38-5.03-.96-7.42-1.62-14.98-4.14-44.16-10.72-54.53-21.94-.59-.65-1.36-1.07-1.43-1.91-.03-.17-.02-.37.03-.58,26.99,13.33,57.74,15.22,86.89,21.09l17.18-12.24c-.35-.41-.73-.67-1.15-.84-.27-.1-.56-.16-.86-.19-1.64-.16-3.6.68-5.38.71-35.47.67-74.27-6.74-106.22-21.99Z"></path>
  <polygon class="st2" points="650.54 488.04 694.43 469.64 652.67 473.18 650.54 488.04"></polygon>
  <path class="st2" d="M403.42,524.86c-.78-1.81-5.51-10.93-6.7-11.07-11.6,3.52-23.85,3.14-35.78,4.71l42.48,6.36Z"></path>
  <path class="st2" d="M448.91,528.83c.35.75,1.16,1.35,1.95,1.7.11-.61-.1-1.17-.48-1.64-.56-1.49-2.3-3.59-2.75-3.11-.22.45.49,1.92,1.27,3.03t.01.02Z"></path>
  <path class="st2" d="M441.97,533.87s0,.01.01.01c.12.07.25.13.38.19.23-1.28-.96-2.32-2.11-2.83-.06.36-.02.7.11,1.01.27.68.92,1.24,1.61,1.62Z"></path>
  <path class="st2" d="M579.02,391.75l-14.16,8.48c5.19-1.79,10.29-4.55,14.16-8.48Z"></path>
  <path class="st4" d="M276.21,680.93c0-12.62-9.31-24.14-27.24-24.14h-34.25v70.1h19.83v-22.73h6.91l16.32,22.73h21.83v-1.2l-18.23-23.63c11.82-5.21,14.82-12.52,14.82-21.13ZM249.17,689.44h-14.62v-16.82h14.42c5.21,0,7.71,4.31,7.71,8.71s-2.3,8.11-7.51,8.11Z"></path>
  <polygon class="st4" points="309.46 699.55 342.6 699.55 342.6 683.43 309.46 683.43 309.46 673.42 344.61 673.42 344.61 656.79 289.93 656.79 289.93 726.89 346.01 726.89 346.01 710.17 309.46 710.17 309.46 699.55"></polygon>
  <path class="st4" d="M425.32,691.34c0-19.33-11.92-34.55-36.65-34.55h-30.04v70.1h30.04c25.14,0,36.65-16.22,36.65-35.55ZM378.25,673.32h10.41c12.12,0,17.02,8.21,17.02,17.83s-4.41,19.03-17.02,19.03h-10.41v-36.85Z"></path>
  <path class="st4" d="M456.16,692.34c.1,19.03,10.82,36.35,38.35,36.35,10.62,0,20.23-3.1,28.14-10.92l-11.62-13.02c-5.01,5.11-11.82,7.11-16.52,7.11-13.82,0-18.63-10.32-18.73-19.43-.1-9.11,5.21-20.13,18.73-20.13,4.71,0,9.91,1.3,14.92,6.11l12.22-12.02c-7.91-7.71-17.02-11.22-27.14-11.22-26.34,0-38.46,19.13-38.35,37.15Z"></path>
  <path class="st4" d="M575.02,656.79h-20.03l-31.44,70.1h21.03l4.61-11.52h31.35l4.61,11.52h21.23l-31.34-70.1ZM555.9,698.75l9.01-22.33,8.91,22.33h-17.93Z"></path>
  <path class="st4" d="M679.17,656.79h-19.93v24.03c.1,2.7.1,5.91.6,14.32l-29.64-38.35h-16.82v70.1h20.03v-22.43l-.3-15.32,29.24,37.75h16.82v-70.1Z"></path>
  <path class="st4" d="M729.84,655.09c-22.93,0-38.96,13.72-38.96,36.75s16.02,36.75,38.96,36.75,38.96-13.32,38.96-36.75-15.92-36.75-38.96-36.75ZM729.84,711.67c-11.22,0-19.13-8.11-19.13-19.83s7.81-19.83,19.13-19.83,19.13,7.81,19.13,19.83-7.51,19.83-19.13,19.83Z"></path>
  <polygon class="st4" points="800.03 699.55 833.18 699.55 833.18 683.43 800.03 683.43 800.03 673.42 835.18 673.42 835.18 656.79 780.5 656.79 780.5 726.89 836.59 726.89 836.59 710.17 800.03 710.17 800.03 699.55"></polygon>
  <path class="st2" d="M333.41,736.55v34.13h9.65v-9.22h6.92c9.12-.1,13.7-5.51,13.7-12.48,0-4.27-1.87-8.16-5.6-10.41-2.1-1.27-4.8-2.02-8.1-2.02h-16.58ZM349.99,753.32h-6.92v-8.48h6.92c2.63,0,4.05,2.05,4.05,4.29s-1.36,4.19-4.05,4.19Z"></path>
  <polygon class="st2" points="368.67 736.55 368.67 738.57 368.67 770.68 394.66 770.68 394.66 762.49 378.32 762.49 378.32 738.57 378.32 736.55 368.67 736.55"></polygon>
  <path class="st2" d="M430.89,755.66v-19.07h-9.61v19.07c0,5.17-2.58,7.51-6.48,7.51s-6.49-2.24-6.49-7.61v-18.97h-9.61v18.97c0,4.31,1.05,7.75,2.98,10.32,2.74,3.65,7.24,5.53,13.11,5.53,1.31,0,2.55-.1,3.73-.3,7.77-1.27,12.41-6.69,12.36-15.45Z"></path>
  <polygon class="st2" points="476.09 736.55 466.05 736.55 457.07 748.1 448.1 736.55 438.01 736.55 438.01 770.68 447.57 770.68 447.57 750.4 456.1 760.68 457.81 760.68 466.53 750.35 466.53 770.68 476.09 770.68 476.09 736.55"></polygon>
  <path class="st2" d="M509.79,752.74c2.97-1.36,3.75-4.05,3.75-6.63,0-6.53-5.56-9.56-12.39-9.56h-17.46v34.13h17.6c6.24-.05,13.21-2.34,13.21-10,0-3.07-1.56-6.24-4.73-7.95ZM493.21,744.35h7.8c1.9,0,2.97,1.17,2.97,2.68s-1.07,2.53-3.07,2.53h-7.7v-5.22ZM501.35,763.17h-8.14v-6.49h8.14c2.39,0,3.61,1.41,3.61,3.27s-1.17,3.22-3.61,3.22Z"></path>
  <rect class="st2" x="520.42" y="736.55" width="9.61" height="34.13"></rect>
  <path class="st2" d="M559.97,736.55v11.7c.05,1.32.05,2.88.29,6.97l-14.43-18.68h-8.19v34.13h9.75v-10.92l-.15-7.46,14.24,18.38h8.19v-34.13h-9.7Z"></path>
  <path class="st2" d="M608.68,764.93v-15.16h-16.68v7.56h8.63v4.39c-1.95,1.41-4.78,1.76-6.58,1.76-6.88,0-9.17-5.41-9.17-9.8,0-6.68,3.61-10,9.17-10,2.29,0,5.31.63,7.8,2.97l5.61-5.56c-4.49-4.53-8.68-5.51-13.41-5.51-12.82,0-18.68,9.17-18.68,18.09,0,6.55,2.77,13.14,9.58,16.19,2.47,1.11,5.45,1.76,9.04,1.76,5.03,0,9.68-1.37,12.56-3.95.89-.8,1.61-1.71,2.12-2.73Z"></path>
  <polygon class="st2" points="635.55 736.55 625.9 736.55 625.9 765.4 625.9 770.68 651.89 770.68 651.89 762.49 641.84 762.49 635.55 762.49 635.55 736.55"></polygon>
  <polygon class="st2" points="656.81 736.55 656.81 738.57 656.81 770.68 682.8 770.68 682.8 762.49 666.47 762.49 666.47 738.57 666.47 736.55 656.81 736.55"></polygon>
  <path class="st2" d="M704.16,735.77c-12.82,0-18.72,9.31-18.68,18.09.05,9.26,5.27,17.7,18.68,17.7,5.17,0,9.85-1.51,13.7-5.32l-5.66-6.34c-2.44,2.49-5.75,3.46-8.05,3.46-6.73,0-9.07-5.02-9.12-9.46-.05-4.44,2.54-9.8,9.12-9.8,2.29,0,4.83.63,7.27,2.97l5.95-5.85c-1.34-1.3-2.75-2.34-4.22-3.17-1.86-1.04-3.83-1.71-5.9-2.04-1.01-.16-2.04-.26-3.1-.26Z"></path>
  <path class="st2" d="M233.64,644.79l-3.3-3.7c-1.42,1.45-3.36,2.02-4.69,2.02-3.92,0-5.29-2.93-5.32-5.52-.03-2.59,1.48-5.72,5.32-5.72,1.34,0,2.82.37,4.24,1.73l3.47-3.41c-2.25-2.19-4.83-3.18-7.71-3.18-7.48,0-10.92,5.43-10.89,10.55.03,5.4,3.07,10.32,10.89,10.32,3.01,0,5.74-.88,7.99-3.1Z"></path>
  <polygon class="st2" points="236.34 647.41 241.97 647.41 241.97 639.88 249.14 639.88 249.14 647.41 254.71 647.41 254.71 627.51 249.14 627.51 249.14 635.07 241.97 635.07 241.97 627.51 236.34 627.51 236.34 647.41"></polygon>
  <path class="st2" d="M256.7,647.38h5.97l1.31-3.27h8.9l1.31,3.27h6.03l-8.9-19.9h-5.69l-8.93,19.9ZM268.45,633.05l2.53,6.34h-5.09l2.56-6.34Z"></path>
  <path class="st2" d="M289.63,643.15c-1.68,0-3.87-.34-5.83-2.25l-3.1,3.55c2.76,2.9,5.32,3.53,8.9,3.5,4.46-.03,8.73-1.96,8.73-6.48s-4.12-6.17-8.07-6.6c-1.96-.2-3.3-.4-3.3-1.76,0-1.05,1.34-1.48,2.7-1.48,1.73,0,3.3.34,4.66,1.36l2.79-3.55c-2.13-1.68-4.46-2.36-7.45-2.36-4.21,0-8.33,1.82-8.33,6.03,0,4.95,3.75,6.06,8.1,6.45,2.19.2,3.33.83,3.33,1.82,0,1.11-1.28,1.76-3.13,1.76Z"></path>
  <polygon class="st2" points="301.4 647.38 317.32 647.38 317.32 642.63 306.95 642.63 306.95 639.62 316.36 639.62 316.36 635.04 306.95 635.04 306.95 632.2 316.93 632.2 316.93 627.48 301.4 627.48 301.4 647.38"></polygon>
  <path class="st2" d="M334.19,647.81c6.11,0,9.44-3.78,9.44-9.01v-11.32h-10.92v4.72h5.29v6.57c0,2.7-1.39,4.15-3.75,4.15-1.96,0-3.61-1.14-3.67-4.12h-5.49c0,6.23,3.36,9.01,9.1,9.01Z"></path>
  <path class="st2" d="M344.65,647.38h5.97l1.31-3.27h8.9l1.31,3.27h6.03l-8.9-19.9h-5.69l-8.93,19.9ZM356.39,633.05l2.53,6.34h-5.09l2.56-6.34Z"></path>
  <path class="st2" d="M370.15,647.38h5.63v-6.45h1.96l4.63,6.45h6.2v-.34l-5.18-6.71c3.36-1.48,4.21-3.55,4.21-6,0-3.58-2.64-6.85-7.73-6.85h-9.72v19.9ZM375.78,631.97h4.09c1.48,0,2.19,1.22,2.19,2.47s-.65,2.3-2.13,2.3h-4.15v-4.78Z"></path>
  <path class="st2" d="M391.51,647.38h5.63v-6.45h1.96l4.63,6.45h6.2v-.34l-5.17-6.71c3.36-1.48,4.21-3.55,4.21-6,0-3.58-2.64-6.85-7.73-6.85h-9.72v19.9ZM397.14,631.97h4.09c1.48,0,2.19,1.22,2.19,2.47s-.65,2.3-2.13,2.3h-4.15v-4.78Z"></path>
  <polygon class="st2" points="428.78 642.63 418.41 642.63 418.41 639.62 427.82 639.62 427.82 635.04 418.41 635.04 418.41 632.2 428.39 632.2 428.39 627.48 412.86 627.48 412.86 647.38 428.78 647.38 428.78 642.63"></polygon>
  <polygon class="st2" points="436.58 647.38 442.18 647.38 442.18 632.11 448.01 632.11 448.01 627.48 430.78 627.48 430.78 632.11 436.58 632.11 436.58 647.38"></polygon>
  <polygon class="st2" points="455.06 647.38 460.66 647.38 460.66 632.11 466.49 632.11 466.49 627.48 449.26 627.48 449.26 632.11 455.06 632.11 455.06 647.38"></polygon>
  <rect class="st2" x="468.76" y="627.45" width="4.27" height="7.76"></rect>
  <path class="st2" d="M484.26,639.56c2.19.2,3.33.83,3.33,1.82,0,1.11-1.28,1.76-3.13,1.76-1.68,0-3.87-.34-5.83-2.25l-3.1,3.55c2.76,2.9,5.32,3.53,8.9,3.5,4.46-.03,8.73-1.96,8.73-6.48s-4.12-6.17-8.08-6.6c-1.96-.2-3.3-.4-3.3-1.76,0-1.05,1.34-1.48,2.7-1.48,1.73,0,3.3.34,4.66,1.36l2.79-3.55c-2.13-1.68-4.46-2.36-7.45-2.36-4.21,0-8.33,1.82-8.33,6.03,0,4.95,3.75,6.06,8.1,6.45Z"></path>
</svg></svg></g></g></svg></g><g id="dark-icon"><svg xmlns="http://www.w3.org/2000/svg" version="1.1" xmlns:xlink="http://www.w3.org/1999/xlink" xmlns:svgjs="http://svgjs.dev/svgjs" width="1000" height="1000"><g clip-path="url(#SvgjsClipPath1025)"><rect width="1000" height="1000" fill="#ffffff"></rect><g transform="matrix(1.1256371910527925,0,0,1.1256371910527925,149.99999999999994,185.22681589399713)"><svg xmlns="http://www.w3.org/2000/svg" version="1.1" xmlns:xlink="http://www.w3.org/1999/xlink" xmlns:svgjs="http://svgjs.dev/svgjs" width="621.87" height="559.28"><svg xmlns="http://www.w3.org/2000/svg" xmlns:xlink="http://www.w3.org/1999/xlink" id="Layer_1" version="1.1" viewBox="214.72 212.34 621.87 559.28">
  <!-- Generator: Adobe Illustrator 29.1.0, SVG Export Plug-In . SVG Version: 2.1.0 Build 142)  -->
  <defs>
    <style>
      .st0 {
        fill: #3dc5dc;
      }

      .st1 {
        fill: #1596bc;
      }

      .st2 {
        fill: #0c262d;
      }

      .st3 {
        fill: url(#radial-gradient);
      }

      .st4 {
        fill: #cd3335;
      }
    </style>
    <radialGradient id="radial-gradient" cx="525.61" cy="395.2" fx="525.61" fy="395.2" r="215.62" gradientUnits="userSpaceOnUse">
      <stop offset="0" stop-color="#f8ec32"></stop>
      <stop offset=".35" stop-color="#faad3e"></stop>
      <stop offset=".69" stop-color="#f6911d"></stop>
      <stop offset="1" stop-color="#f05a29"></stop>
    </radialGradient>
  <clipPath id="SvgjsClipPath1025"><rect width="1000" height="1000" x="0" y="0" rx="300" ry="300"></rect></clipPath></defs>
  <path class="st3" d="M283.94,562.35l23.4-3.02c-3.39-5.26-8.13-10.33-10.64-16.12-1.01.11-.6-.08-.71-.71-.04-.22.05-.51,0-.71-1.12-.02-1.72-2.53-2.13-3.55-2.67-6.64-5.63-16.14-6.04-23.21-.14-2.35-.33-8.14.1-10.21.34-1.65,2.99-4.38,4.51-5.07,3.28-1.49,4.51.2,7.23,1.32,12.93,5.33,25.85,10.78,39.39,14.47,12.94-8.01,26.33-15.27,39.45-22.95.29-.17.57.08.46-.61-.12-.71-4.64-6.79-5.51-8.33-2.04-3.64-3.99-8.15-5.24-12.13-.26-.83,0-1.92-.67-2.17-2.48-.55-5.05-.08-7.55-.25-15.96-1.07-31.84-3.16-47.85-3.56-6.84-.17-13.74.29-20.58.01-.43-.02-1.32.27-1.24-.35,4.61-.59,9.34-1.03,13.91-1.87,17.71-3.24,36.05-9.24,53.72-13.28,4.36-1,8.75-1.92,13.22-2.38,1.25-.4,1.82-2.74,2.53-3.85,3.99-6.28,8.5-11.85,14.46-16.38.16-.76-.31-.47-.78-.62-4.32-1.4-8.79-1.89-13.14-3.54-23.77-9.03-46.49-19.76-70.64-27.21l-3-1.42c5.47,1.09,11,2.02,16.53,2.79,19.21,2.67,38.39,3.12,57.75,3.22l23,1.8,4.82-15.47-.36-1.04c-6.37-3.68-12.58-8.26-18.25-12.94-11.09-9.17-21.7-19.85-32.99-28.7-5.43-4.26-11.54-7.62-16.83-12.06,4.37,1.42,8.49,3.74,12.77,5.49,23.25,9.47,47.87,15.64,70.1,27.42l1.06-.2,12.17-11.95c.41-.48.46-1.11.26-1.7l-8.99-15.48-35.95-58.52c.67-.15.84.38,1.24.71,4.49,3.73,8.86,8.63,13.29,12.59,14.29,12.78,29.74,25.59,44.87,37.38,1.19.93,8.92,7.16,9.5,7.05,4.62-4.08,10.11-6.74,15.43-9.73l-18.39-80.26,7.03,13c11.27,19.77,24.34,38.41,36.06,57.91.66.58,4.31-.75,5.42-.96,3.82-.72,7.62-1.39,11.54-1.22l14.4-82.55,12.78,81.87c3.89-.05,7.77.55,11.55,1.39,1.52.34,6.02,2.27,7.07,1.49,16.13-22.17,29.41-46.28,42.27-70.47l1.13-.82-18.75,81.5c4.68.83,8.57,3.08,12.18,6.07,1.07.88,2.78,3.52,4.07,3.01,1.56-.62,6.1-4.44,7.78-5.71,17.87-13.53,36.09-29.26,52.51-44.63,2.18-2.04,4.31-4.7,6.55-6.56.4-.33.57-.86,1.24-.71.17.17-1.82,3.28-2.12,3.73-8.89,13.55-19.16,28.17-25.84,42.94-.34.76-2.21,4.65-1.82,5.09.71,0,1.4-.65,1.94-1.07,11.06-8.57,18.73-19.62,34.93-15.77,14.72,3.5,23.04,16.73,29.64,29.22l11.48-6-10.23,9.47c1.29,4.93,2.91,8.57,1.47,13.85-1.59,5.85-9.91,12.96-15.89,13.54-.97.09-4.58-.31-4.78-.18-.5.32-.3.47-.19.9.59,2.37,2.19,4.43,1.34,6.99-1.28,3.86-11.58,6.5-15.11,8.29-.92.65-1.61,3.57-2.33,4.76-1.6,2.61-4.54,3.79-7,5.41l-7.19,3.97c1.91.02,3.68-.73,5.54-1.01,16.24-2.42,32.58-.78,48.87-1.82,12.7-.82,25.14-3.79,37.63-4.92.4-.04,1.27-.33,1.19.31-21.66,7.12-43.19,14.62-64.61,22.42-4.43,1.61-8.71,3.72-13.19,5.24-5.65,1.92-11.47,3.24-17.16,5,.25,3.53,1.5,6.87,1.73,10.42.13,1.97-.39,5.79.07,7.37.17.58.62.84,1.18.95,2.42.45,6.49-.14,9.2.01,17.92,1.03,36.12,8.48,53.87,10.98,8.74-5.62,17.95-10.56,26.62-16.29,4.51-2.98,9.55-7.43,14.11-9.99,2.9-1.63,5.17-2.58,7.66-.1,4.83,4.8,4.89,24.94,4.64,31.9-.6,17.05-3.59,34.89-9.59,51.41h0s0,0,0,0c-4.23,11.65-9.94,22.64-17.38,32.23-3.86,4.97-8.43,9.32-12.4,14.19l34.39,2.66c4.2-12.57,7.31-25.3,9.39-38.1,1.08-6.7,1.89-13.41,2.42-20.13,1.59-20.23.68-40.49-2.54-60.38-.58-3.63-1.24-7.24-1.98-10.84-5.51-26.94-15.23-53.08-28.64-77.42-4.08-7.41-8.5-14.64-13.25-21.68-3.99-5.93-8.21-11.72-12.66-17.35-11.33-14.35-24.45-27.21-38.88-38.39-3.44-2.69-6.95-5.27-10.53-7.74-22.74-15.78-48.21-27.71-74.74-35.33-26.48-7.61-53.76-10.82-81.26-9.47-1.91.1-4.27-.26-6.07-.04-.67.09-.34.68-1.01.77-1.15.14-2.17-.42-2.83-.39-.24.01-.03.65-.71.74-1.5.21-2.9-.39-4.23-.36-2.48.06-5.24.83-7.22,1.38-3.13.87-7.87.9-10.87,1.48-38.22,7.33-71.8,20.7-100.99,41.22-3.53,2.47-6.99,5.05-10.39,7.74-17.62,13.94-33.53,30.73-47.8,50.65-1.21,1.69-2.4,3.38-3.57,5.09-4.85,7.08-9.35,14.31-13.48,21.68-7.68,13.68-14.1,27.82-19.22,42.29-.11.32-.23.65-.34.97-.37,1.06-.73,2.12-1.08,3.18-16.92,50.72-17.91,105.41-.72,159.02ZM715.21,335.47c.23.12.23.24,0,.35v-.35ZM667,276.63c.36.32-.54.9-.53.53l.53-.53ZM601.23,244.36h-.35c-.18-1.47.52-1.47.35,0Z"></path>
  <path class="st1" d="M516.13,688.22c4.23-.34,8.38-.68,12.43-1.01l7.07-15.77c-1.18.36-2.36.72-3.54,1.08l-15.96,15.7Z"></path>
  <path class="st1" d="M436.99,691.34c0,1.13-.04,2.23-.1,3.33,2.49-.2,5.04-.41,7.63-.62-.02-.55-.04-1.09-.04-1.64-.01-2.15.12-4.28.38-6.38-2.72-.03-5.43-.11-8.14-.25.18,1.82.28,3.67.28,5.57Z"></path>
  <path class="st1" d="M494.51,683.99c-2.87,0-4.1.91-4.78,1.59-1.09,1.11-1.87,2.94-2.15,4.96,5.44-.44,10.87-.89,16.24-1.32l-2.47-2.37c-2.11-2.03-4.09-2.86-6.84-2.86Z"></path>
  <path class="st1" d="M597.63,678.74c1.35-.41,2.71-.8,4.07-1.18v-26.74c-4.92,1.28-9.82,2.68-14.7,4.14l10.63,23.78Z"></path>
  <path class="st1" d="M685.4,636.82c-11.99-1.54-23.82-2.04-35.96-1.79-.17.59-.48,1.02-.04,1.61,1.08,1.44,7.62,1.52,9.68,2.04,1.68.42,3,1.46,4.81,1.55l1.85,2.24c-4.39.18-8.91-.24-13.29,0-1.77.1-3.99.96-4.94,1.09-1.7.22-3.89-.18-5.69-.02-4.36.38-8.68.92-12.97,1.58h7.08l11.63,15.05v-15.05h43.28v14.07c7.18-8.03,17.37-13.35,29.68-15.12-2.86-.61-5.55-1.71-8.4-2.42-8.65-2.15-18-3.71-26.72-4.83Z"></path>
  <path class="st0" d="M690.92,617.3c-.45-1.87,1.38-.57,1.97-1.39,1.13-1.57-3.14-4.7-4.1-6.23-1.64-2.63-3.16-5.54-5.17-7.95-.91-1.09-4.76-2.58-4.4-3.74.39-1.28,4.44.05,5.5.17,11.62,1.33,23.03,3.76,34.2,7.27,8.01,2.52,16.32,5.59,23.4,10.1,8.66-13.69,14.18-24.7,20.21-39.71-12.06-1.98-24.25-3.55-36.51-3.19-.16.66.23.69.59,1,1.86,1.61,6.01,3.35,8.38,5.09,3.99,2.91,8.82,7.58,12.12,11.27.85.94,2.16,2.4,2.47,3.55-3.89-1.44-7.36-4-11.28-5.74-5.66-2.51-12.5-4.21-18.23-5.58-2.01-.48-4.58-1.03-6.39-1.41-37.67-8.05-76.65-9.44-114.94-5.7l-.71.35c-.1.08-2.06.03-2.48,0l-.71.35c-.08.06-1.77.03-2.13,0l-.71.35c-.1.07-2.06.03-2.48,0l-.71.35c-.17.13-3.87.4-4.25.35l-.71.35c-.07.05-1.47.02-1.77,0l-.71.35c-.27.21-5.75.59-6.74.71h-.35c-.6.05-1.11.46-2.13.35-.17.46-.68.34-1.06.35-.79.03-1.7.06-2.48,0-.17.46-.68.34-1.06.35-.57.02-1.21.04-1.77,0-.17.46-.67.34-1.06.35-.79.03-1.7.06-2.48,0l-.71.35c-.07.05-1.47.02-1.77,0l-.71.35c-.11.09-2.37.03-2.84,0l-.71.35c-.05.05-1.19.03-1.42,0-.46.07-.96.32-1.42.35-.75.06-1.73.05-2.48,0-.17.46-.68.34-1.06.35-.57.02-1.21.04-1.77,0-.17.46-.68.34-1.06.35-.68.02-1.45.05-2.13,0-.46.06-.98.33-1.42.35-.46.02-.96.03-1.42,0l-.71.35c-.2.15-4.53.41-4.96.35l-.71.35c-.09.06-1.78.03-2.13,0l-.71.35c-.07.05-1.48.04-1.77,0-.17.46-.67.34-1.06.35-.79.03-1.7.06-2.48,0l-.71.35c-.11.09-2.37.03-2.84,0-.25.53-.95.34-1.42.35-.92.02-1.93.06-2.84,0-.17.46-.68.34-1.06.35-.58.02-1.2.04-1.77,0-.3.57-1.2.34-1.77.35-.93.02-1.92.06-2.84,0-.25.53-.95.34-1.42.35-.81.02-1.68.05-2.48,0-.39.59-1.46.35-2.13.35-1.84.02-3.85.1-5.67,0-.48.62-1.7.35-2.48.35-1.41.01-2.85-.06-4.25,0-.72.03-2.05.32-3.19.35-2.82.1-5.68-.06-8.51,0-4.19.08-8.24.12-12.41,0-2.47-.07-4.97.05-7.44,0-.57-.01-1.47.21-1.77-.35-1.22.08-2.67.05-3.9,0-.39-.02-.89.11-1.06-.35-1.34.09-2.89.03-4.25,0-.47-.01-1.17.18-1.42-.35-.67.05-1.45.03-2.13,0-.39-.02-.89.11-1.06-.35-.99.07-2.18.04-3.19,0-.39-.02-.89.11-1.06-.35-.42.03-2.38.07-2.48,0l-.71-.35c-.79.06-1.68.02-2.48,0-.47-.01-1.17.18-1.42-.35-.45.03-.96.02-1.42,0-.39-.02-.89.11-1.06-.35-.56.04-1.21.03-1.77,0-.39-.02-.89.11-1.06-.35-.45.03-.96.02-1.42,0-.39-.02-.89.11-1.06-.35-.35.03-2.04.06-2.13,0l-.71-.35c-.24.04-1.36.05-1.42,0l-.71-.35c-.56.04-1.21.03-1.77,0-.39-.02-.89.11-1.06-.35-3.7.1-8.96-2.16-12.88-2.15-.66,1.5-1.58,2.87-2.36,4.28l-.35.35c-.57.99-.78,2.33-1.77,3.55,0,.71-.35,1.1-1.06,1.06-.51.87-.61.82-1.06,1.42l-.35.35c-2.43,3.08-5.29,6.57-8.15,9.22-.09.83-.08,1.16.57,1.73,1.94,1.71,6.81,2.54,9.25,3.87,1.17.64,2.01,1.82,3.3,2.55-.53-.73-.47-.91.46-.63,24.89,7.41,50.94,6.47,76.64,5.58,4.23-.15,8.56-.08,12.77-.34,10.26-.63,20.49-1.9,30.67-3.19l-.22,1.09c-5.81,3.94-12.18,6.17-18.97,7.9-12.41,3.17-25.78,4.73-38.59,4.84.03.15.03.26.03.36h9.53v1.91c2.03-1.45,4.79-2.28,8.05-2.28,3.84,0,6.88.98,9.55,3.09l2.67,2.1-3.97,5.07c3.34,2.37,3.83,5.76,3.83,7.53,0,.73-.08,1.42-.22,2.09,4.7.16,9.2.92,13.47,2.28,22.39-5.16,44.57-12.79,66.66-18.36,39.59-9.98,73.54-14.49,114.44-10.17Z"></path>
  <path class="st0" d="M475.08,639.79l.1-.12s-.07-.09-.11-.13c0,.08,0,.17,0,.25Z"></path>
  <path class="st1" d="M684.72,598.16c-1.06-.12-5.1-1.44-5.5-.17-.36,1.17,3.49,2.65,4.4,3.74,2.01,2.41,3.53,5.32,5.17,7.95.96,1.54,5.23,4.67,4.1,6.23-.59.82-2.42-.47-1.97,1.39,1.06.11,2.2-.09,3.32.05,13.53,1.58,27.46,4.79,39.93,10.23,2.77-3.95,5.51-7.87,8.15-12.05-7.07-4.51-15.39-7.58-23.4-10.1-11.17-3.51-22.58-5.95-34.2-7.27Z"></path>
  <path class="st1" d="M325.42,572.28c-.45.04-1.19.14-1.42-.35-.82.06-1.66-.01-2.48,0-2.38.04-4.92-.34-7.09-.35-1.89,0-3.79-.01-5.67,0-2.25.01-5.01.3-7.44.35-1.77.04-3.55-.03-5.32,0-.7.01-1.96.39-3.19.35-.47-.01-.95.03-1.42,0-.58.62-1.96.36-2.84.35-.35,0-.71,0-1.06,0,.06.11-.01.92.18,1.4,4.06,10.42,9.25,24.25,14.88,33.71.33.56.42,1.09,1.25,1.05-.87-5.81.41-15.66,3.61-20.67,4.23-6.61,12.98-10.3,18.72-15.14v-.71c-.23.03-.48-.02-.71,0Z"></path>
  <path class="st0" d="M320.33,633.09c.51.78,1.04,1.55,1.6,2.3h4.24c-1.75-.67-4.32-1.96-5.84-2.85v.55Z"></path>
  <path class="st1" d="M466.87,623.69c-6.59.05-13.62-.41-20.21-1.06.22,1.05-.91,1.11-.71,0-15.42-1.66-28.51-6.52-41.83-14.18-1.28-.74-2.13-1.92-3.3-2.55-2.44-1.32-7.31-2.16-9.25-3.87-.65-.57-.66-.91-.57-1.73-7.04,6.51-15.58,13.11-23.23,19.13-1.95,1.54-4.14,3.09-6.38,4.65h.08l5.28,11.81v-11.81h13.13c3.6,0,6.36,1.26,8.23,3.14v-3.14h13.13c3.6,0,6.36,1.26,8.23,3.14v-3.14h55.9v-.03h1.54c0-.1,0-.21-.03-.36Z"></path>
  <path class="st1" d="M474.31,638.62h-8.95v-3.1h-1.3v15.27h-12.41v-15.27h-6.07v15.27h-12.41v-15.27h-1.38v.09h-.57v3.63h.97v11.56h-18.25c1.38.72,2.71,1.5,3.98,2.34,9.23.86,18.45,1.16,28.04,1.04.39,0,1.01,0,1.42,0,1.86-.03,3.62-.29,5.32-.35.27-.01.77.04,1.42,0,1.25-.07,2.43-.29,3.55-.35.15,0,.82.03,1.42,0,.82-.05,1.66.02,2.48,0,.48-.01.97.08,1.44-.02,3.24-2.48,6.81-4.5,10.66-6.07-.2-.19-.39-.38-.59-.58l-2.14-2.25,4.15-4.76c0-.08,0-.17,0-.25-.27-.29-.53-.59-.76-.92Z"></path>
  <path class="st0" d="M647.52,643.57c.95-.12,3.18-.99,4.94-1.09,4.38-.25,8.9.18,13.29,0l-1.85-2.24c-1.8-.09-3.13-1.13-4.81-1.55-2.06-.52-8.61-.61-9.68-2.04-.44-.59-.13-1.02.04-1.61-.36-.02-.84.05-1.06.35-.08.11.1.63,0,.7-.2.14-4.67.97-3.54-.7-.35.02-2.66.62-2.84.71-.03.01.09.48-.07.62-.25.22-3.31.12-4.02.09-.68-.03-1.42.36-1.23-.71-17.3.94-35.51,5.43-53.38,10.62l3.69,8.25c4.89-1.46,9.78-2.85,14.7-4.14v-5.7h27.16c4.3-.66,8.62-1.2,12.97-1.58,1.81-.16,3.99.25,5.69.02Z"></path>
  <path class="st0" d="M538.03,666.07l3.05-6.8c-2.63.72-5.26,1.43-7.86,2.11l4.81,4.69Z"></path>
  <path class="st0" d="M535.63,671.43l1.92-4.29-5.46,5.37c1.18-.36,2.36-.72,3.54-1.08Z"></path>
  <path class="st0" d="M434.04,673.76c1.36,3.75,2.26,7.77,2.68,12.01,2.71.14,5.42.22,8.14.25.5-4.18,1.51-8.26,2.98-12.11-4.58.06-9.18,0-13.8-.15Z"></path>
  <path class="st1" d="M637.91,636.8c.71.03,3.77.13,4.02-.09.16-.14.04-.6.07-.62-.33-.03-1.25-.48-1.42-.35-.03.03.14.69-.22.74-.47.07-.77-.38-.84-.39-.88-.06-1.95-.05-2.84,0-.2,1.07.54.68,1.23.71Z"></path>
  <path class="st1" d="M648.38,636.08c.1-.07-.07-.59,0-.7-1.17.05-2.37-.07-3.55,0-1.13,1.67,3.34.84,3.54.7Z"></path>
  <path class="st0" d="M640.58,635.74l-1.06.35c.07,0,.37.46.84.39.36-.06.19-.72.22-.74Z"></path>
  <path class="st0" d="M445.95,622.62c-.2,1.11.93,1.05.71,0-.23-.02-.48.02-.71,0Z"></path>
  <path class="st2" d="M657.71,354.63c-.11.03-.2.08-.29.12.03-.07.05-.15.09-.21-.09-.07.35-.94-.86-.71-2.48.49-.37,3.11-.56,4.61.01-.01.06,0,.13,0v.02s.03-.01.04-.01c.16.01.38-.01.5-.22.43-.27.65-.69.77-1.16.28-.73.23-1.66.18-2.44Z"></path>
  <path class="st2" d="M320.33,635.6h-.57v3.63h.97v5.89h2.23c-.84-1.76-1.28-3.88-1.28-6.32v-3.32c-.47-.63-.92-1.28-1.35-1.94v2.06Z"></path>
  <path class="st2" d="M303.7,609.09c-.84.04-.93-.49-1.26-1.05-5.62-9.45-10.81-23.28-14.87-33.7-.19-.48-.12-1.3-.18-1.41-2.2-3.98-2.19-6.04-3.54-10.28-3.94-12.29-6.93-24.64-8.99-36.98-1.12-6.72-1.96-13.43-2.54-20.13-1.74-20.32-1-40.54,2.11-60.38.57-3.63,1.21-7.24,1.94-10.84,2.11-10.46,4.88-20.8,8.29-30.98.36-1.06.71-2.12,1.08-3.18.11-.32.23-.65.34-.97,5.12-14.47,11.54-28.61,19.22-42.29,4.13-7.37,8.63-14.6,13.48-21.68,1.17-1.71,2.36-3.4,3.57-5.09,14.27-19.92,30.18-36.71,47.8-50.65,3.4-2.69,6.86-5.27,10.39-7.74,29.19-20.52,62.77-33.89,100.99-41.22,3-.58,7.74-.61,10.87-1.48,1.98-.55,4.74-1.32,7.22-1.38,1.33-.03,2.73.57,4.23.36.68-.09.47-.73.71-.74.66-.03,1.68.53,2.83.39.67-.09.34-.68,1.01-.77,1.8-.22,4.16.14,6.07.04,27.5-1.35,54.78,1.86,81.26,9.47,26.53,7.62,52,19.55,74.74,35.33,3.58,2.47,7.09,5.05,10.53,7.74,14.43,11.18,27.55,24.04,38.88,38.39,4.45,5.63,8.67,11.42,12.66,17.35,4.75,7.04,9.17,14.27,13.25,21.68,13.41,24.34,23.13,50.48,28.64,77.42.74,3.6,1.4,7.21,1.98,10.84,3.22,19.89,4.13,40.15,2.54,60.38-.53,6.72-1.34,13.43-2.42,20.13-2.08,12.8-5.19,25.53-9.39,38.1-.03.1-.06.2-.1.3-.31.91-.62,1.81-.94,2.69-1.16,3.19-2.4,6.2-3.66,9.36-6.03,15.01-11.55,26.02-20.21,39.71-2.65,4.18-5.38,8.1-8.16,12.05-3.86,5.51-7.82,10.77-12.24,16.03,2.58-.32,5.25-.49,8-.49,3.15,0,6.19.21,9.12.63,34.65-45.23,55.25-101.79,55.25-163.16,0-148.32-120.24-268.55-268.56-268.55s-268.55,120.23-268.55,268.55c0,52.65,15.16,101.75,41.34,143.2h12.04c-3.47-4.45-5.99-9.69-6.78-14.99Z"></path>
  <path class="st2" d="M607.01,384.69c-.23-1.06-1.28-2.87-2.43-4.69-1.34-2.47-2.92-5.22-3.9-6.79-.87-1.91-2.04-4.24-2.87-4.1-.72.13-1.51,1.91-1.72,2.03-.48.27-1.54-.16-1.89.41-.31.48.04,1.98-.71,2.13-.54.12-2.52-1.18-4.18-.64-1.07.36-.22,1.28-.31,1.86-.23,1.43-3.43.81-4.53.93-.17.17.73,1.89-.24,2.5-1.61,1.02-2.75-.47-3.12-.38-.36.08-.4,1.05-.77,1.1-.51.07-1.37-.62-1.84-.35-.64.37-1,3.04-1.12,3.15-.25.22-1.36-.42-1.41-.35v1.77c-1.89.52-.34-1.74-2.13-1.77.44,2.08-1.44,3.84-3.42,3.9-1.65.04-3.14-2.46-2.69,2.05.21,2.02-3.19.87-4.53.78-.57,1.05-1.21.36-1.42.36-.23,0-.47-.01-.71,0v.71c.01,1.57.15,2.21-1.97,2.09-.61-.04-1.21-.99-1.87-.61-1.99,2.6-4.38,3.85-5.02,7.38l.35.18-.35.53c-.02.35,0,.71,0,1.06.01.69-.07,1.47,0,2.13.02.23-.03.48,0,.71.02.19.27.69.35,1.06.37,1.64.83,2.7,1.64,3.65,1.08,1.71,2.75,3.07,5.01,3.79,1.69.53,3.17-.89,4.59,1.71,2.21-3.02,2.12-3.43,6.01-2.11v-2.84s4.25,1.42,4.25,1.42v-1.85c.15-.46.09-.96,0-1.43v-.96l6.37-.72v-4.24s5,.41,5,.41l.68-3.96c4.15,1,7.19.83,7.08-4.24l4.24,1.41v-4.24s4.25,1.41,4.25,1.41l.66-3.94,5-.31c.15-.73-.03-1.22-.28-1.83,0-.08-.03-.17-.05-.27ZM600.59,377.94c-.66,1.45-9.43,7.74-11.4,9.16-6.07,4.4-14.01,10.38-20.35,14.04-1.63.94-5.35,3.12-7.22,1.63l-.22-2.06,1.69-.99h0c.01.07.04.14.11.21,1.23-.1,2.57-.84,3.66-1.41.32-.17.21-.7.24-.72.11-.07.7,0,1.05-.17,5.2-2.59,9.54-5.39,14.23-8.84.17-.12,1.1-.34.77-.79h0s17.49-10.22,17.49-10.22c-.02.06-.04.12-.06.16Z"></path>
  <path class="st2" d="M603.96,357.56c-2.47,1.39-5.87,4.09-4.88,7.38.02.06.05.12.09.18.01.32.07.64.19.94,1.2,1.21,2.3,2.94,3.4,4.89.01.03.03.06.05.09.16.34.34.67.52.99.06.11.12.21.19.32.01.03.02.05.04.07,2.54,4.79,5.11,10.48,8.65,13.57.02.04.05.09.08.13.04.02.08.04.12.06t.02.01c2.02,1.68,4.35,2.51,7.16,1.87,1.04-.24,6.82-4.27,7.36-5.02.86-1.2,1.22-3.92.39-5.24-.01,0-.02-.02-.03-.03-.06-.43-.16-.79-.33-1.02l-7.19-10.89c-1.64-2.87-3.26-5.55-4.77-7.22l-1.16-1.75c-3.2-2.9-6.67-1.15-9.9.67ZM609.03,363.15c-.09-.04-.18-.08-.26-.13v-1.01c.82-.15,1.54.21,1.89.83-.13.49-.62.74-1.63.31Z"></path>
  <path class="st2" d="M661.93,352.42l.18-.35c-.16-.05-.33-.32-.71-.35-.04.6-.13.83.53.7Z"></path>
  <path class="st2" d="M664.01,353.97l.23.23c-.05-.09-.15-.16-.23-.23Z"></path>
  <path class="st2" d="M663.61,352.86l.27.28c-.07-.13-.17-.2-.27-.28Z"></path>
  <path class="st2" d="M402.79,566.18h0c.02-.29.03-.56.04-.84,2.47-1.27,4.87-2.7,7.22-4.22h0c2.64-1.68,5.21-3.47,7.75-5.23,2.93-2.03,11.12-9.1,13.43-9.97,2.15-.81,4.19,1.79,7.04,1.48,7.99-.86,25.15-12.55,22.61-22.42,24.84-14.85,47.48-33.05,71.18-49.55,10.85-7.55,23.03-16.37,34.27-23.08,3.57-2.13,6.78-4.86,9.85-1.03.2.25.4.52.6.83-2.35,7.99-16.08,28.36-24.93,27.88-2.15-.12-2.94-.73-3.04-1.59-.19-1.7,2.32-4.39,2.6-6.32.16-1.11.01-1.21-1.08-1.08-1.01,1.02-3.52,2.18-6.18,3.46-3.67,1.75-7.63,3.73-8.29,5.84-.11.31-.14.61-.09.92.09.61,8.54,6.68,9.75,7.35,1.89,1.06,4.93,2.75,7.03,2.95,9.26.88,19.96-13.18,24.2-20.29,3.06-5.14,6.67-16.42,9.74-20,4.61-5.38,16.54-9.11,17.97-18.14.17-1.11.02-2.36-.2-3.56-.12-.65-.27-1.28-.4-1.87-.31-1.39-.52-2.53-.13-3.05l30.83-21.61c6.85,4.52,29.41-9.76,30.69-15.33.36-1.59.27-3.82.09-5.46,0-.02,0-.04-.01-.06-.14-.96-1.27-3.05-1.14-4.32h0c.05-.51.3-.87.87-.99,2.2-.46,4.34,4.77,6.46,5.55,1.73-.09,9.92-4.07,8.04-6.25l-.31-.13-3.47-1.47.16-.68.79-3.39-.53-.14-3.73-.94.35-.77.82-1.81.26-.57h0s-4.25-2.51-4.25-2.51l.4-.33.93-.78.08-1s-.04-.09-.07-.14c-.75-1.22-4.46-3.05-5.19-3.74-.16-.16.04-.65.05-.98.01-.11-.01-.19-.05-.25-.05-.06-.09-.12-.14-.18-.41-.53-.77-1.01-1.12-1.45-.11-.14-.22-.27-.32-.39-1.03-1.16-2.15-1.86-4.47-1.72l-1.46,9.3-.22,1.35-.1.67c-1.45-2.48-6.99-9.52-7.35-11.84-.08-.48-.06-.8.04-1.09.09-.28.27-.54.52-.91,1.26-1.84,8.15-6.75,10.34-8.79,1.48-1.39,3.47-2.99,3.89-4.97l1.31.32.1.03c-.03.14-.05.28-.08.42-.73,4.4,1.52,3.68,3.46,4.66-.17.21-.61.16-.63.21-.56.82,1.16,1.16,2.08,1.1.36.52.7,1.16.96,1.86h.01c.09.9.06,1.78.11,2.69.05.02.09.04.13.04.08.02.14.02.19,0,.04,0,.07-.02.09-.03-.01.38-.07.74-.19,1.06-.08,0-.15,0-.22-.01,0,.16,0,.31,0,.46-.06.11-.14.2-.22.29l1.02,1.02,2.98-.63.21-.04-.18.9-.32,1.64-.13.69.79.39.6.3-.6,1.95-.15.49c1.7-.29,3.23.04,4.02.81,0,0,0,.01.01.01.66.64.79,1.59.06,2.71-.14.23-.33.47-.55.72,1.13-.16,2.17.65,3.14,1.82.19.23.38.48.57.73.87,1.18,1.7,2.56,2.51,3.67.45.62.9,1.16,1.35,1.52h.01c.53.43,1.05.62,1.59.43.96-.33,8.11-5.88,8.85-6.79,1.59-1.96,1.89-4.61,1.53-7.41v-.05c-.54-4.08-2.47-8.44-3.84-11.39-7.39-15.85-20.52-29.26-38.85-19.47-6.86,3.67-13.73,8.83-17.58,15.69-9.24-8.64-28.95,2.62-24.21,14.51.17.44.38.87.62,1.31,2.61,4.72,7.85,10.54,11.48,15.93.01.02.02.03.03.04,1.37,2.05,2.51,4.03,3.19,5.87.03.07.06.13.08.2,0,.01.01.03.01.04.16.43.29.84.4,1.24,0,.02,0,.03.01.03,3.14,11.33-9.2,11.07-16.26,14.78-3.38,1.78-13.02,8.69-16.44,11.18-1.7,1.23-8.32,8.05-9,8.33-1.74.71-4.18-.21-6.71.74-1.37.52-15.14,9.93-16.45,11.16-2.13,1.99-1.31,5.84-2.64,7.46-37.74,24.61-74.64,50.45-110.52,77.69l-18.21-4.11c-.12-.23-.23-.46-.34-.69,0,0-.01,0-.01,0-5.13-10.23-8.48-21.37-13.19-31.76-1.17-2.57-2.42-5.09-3.8-7.54l.26-.13,12.61-6.32.66.48c.98,7.94,3.68,15.94,6.64,23.31,1.24,3.08,3.01,7.23,4.88,11.16,1.53,3.2,3.11,6.25,4.54,8.46.51.8,1.32,2.51,2.52,2.29l20.86-16.69,51.11-32.12,2.92-2.33c1.47-.98,3-1.9,3.9-2.87.17-.19.32-.4.46-.61l12.7-10.13c.06.12.11.24.17.35l5.73-4.23c-.06-.23-.12-.45-.19-.68-.91-3.2-2.09-6.26-3.56-9.13-.27-.54-.56-1.07-.85-1.6-.1-.17-.2-.35-.3-.52-.13-.23-.26-.45-.4-.67l-.21-.36c-.04-.06-.08-.12-.11-.18-4.32-6.95-10.45-12.56-18.38-16.02-3.14-1.37-17.49-5.21-18.55-6.95l-.03-.63-.32-7.87c17.4,1.9,10.45-9.94,13.57-18.66.5-1.41,2.53-1.02,3.11-1.84.37-.53.45-1.26.33-2.12-.53-3.67-4.74-9.68-5.8-12.3-.7-1.72-2.4-5.83-2.58-7.4-.01-.13-.03-.26-.04-.39-.37-5.05,3.5-7.86,1.88-10.56-.8-1.36-2.99-2.69-7.8-4.27-10.22-3.35-19.89-3.87-30.05.06-13.77,5.32-19.66,20.54-14.94,34.31,2.8,8.17,7.99,8.01,3.52,18-6.43,14.36-17.99,9.22-29.88,11.89-10.19,2.29-18.09,7.48-22.78,16.87-.77,1.54-1.35,5.11-2.18,5.97-.99,1.04-7.57,3.47-9.67,4.84-9.45,6.19-26.49,27.32-26.32,38.88.14,8.63,7.05,19.47,12.13,26.17,2.21,2.92,4.6,5.67,7.09,8.33.06.06.12.12.17.18,3.49,3.72,7.16,7.27,10.75,10.88.39.39.78.78,1.15,1.17,5.4,5.46,10.55,11.11,14.62,17.72-.03.47-5.62,5.87-6.57,6.69-3.24,2.82-19.52,15.38-22.52,16.5-1.8.67-9.57-.51-12.79-.11-9,1.11-35.97,18.82-44.7,24.68-13.12,8.81-28.15,16.32-21.61,35.1,1.77,5.08,6.03,9.9,11.22,13.19,1.69,1.08,3.48,1.99,5.32,2.69v-4.14h17.73v2.52c9.38-6.01,26.41-19.87,31.24-23.86,11.87-9.82,23.73-19.96,24.52-36.56ZM646.94,339.66c7.58-8.98,19.4-19.85,31.17-11.24,4.3,3.16,3.74,7.53,5.58,12.12,2.6,6.5,8.45,11.99,9.26,19.03.09.79.12,1.6.07,2.44-.33-.38-.66-.77-.99-1.16-.19-.22-.37-.45-.56-.68-4.25-5.22-8.27-11.67-11.31-17.51-.79-1.5-4.5-8.55-4.65-9.44-.03-.15-.01-.31.03-.49.13-.71.66-1.55.47-1.82-.04-.05-.24-.16-.55-.3-1.64-.72-6.36-2.35-7.06-2.45-6.94-.96-14.14,8.61-19.78,11.75-.62.35-1.78,1.56-2.33.51.21-.25.42-.51.65-.76ZM621.51,352.1c-.04-.49-.04-.96.01-1.41.71-7.44,12.21-10.64,17.95-7.71,2.64,1.35,15.61,21.25,18.01,25.18,1.83,3,4.07,6.63,4.89,10,.94,3.87.03,7.41-5.45,9.34-.07-.55.07-.99.33-1.36.64-.97,2.01-1.55,2.34-2.68.48-1.58.24-3.59-.18-5.19-.07-.28-.25-.71-.51-1.25-.01-.03-.02-.05-.03-.08-2.91-6.06-15.71-26.15-18.26-28.73-6.7-6.79-13.86-1.47-19.1,3.89ZM596.9,416.12c.16-.84.77-1.81,2-2.73,2.17-1.65,22.13-13.31,23.83-13.69,1.25-.28,2.54-.19,3.81-.17.21.02.42.02.63.02l-26.39,18.58c-2.41,1.04-4.23-.19-3.88-2.01ZM571.24,427.87c5.47-.96,9.16,2,12.88,5.24.69.98,1.28,2,2.3,2.63.5-1.02-.81-3.13-1.75-3.48,0-.01-.01-.02-.02-.03-.14-.22-.3-.44-.48-.68-1.99-2.67-5.71-6.24-7.27-5.82-.11-.51-.04-.88.13-1.19.2-.34.53-.61.92-.93,5.35-4.43,10.97,5.56,14.52,8.5-.07-.28-.15-.56-.25-.85-.75-2.39-2.21-5.06-3.7-6.88-1.1-1.34-5.05-3.73-4.5-5.25.05-.18.18-.35.38-.5,3.03-2.3,12.02,4.72,13.48,10.61.01.03.01.05.02.08.37,1.57.2,3.06-.77,4.26-1.42,1.77-14.53,10.06-16.31,9.88-1.79-.58-2.59-2.04-3.16-3.73-.4-1.19-.67-2.49-1.09-3.69-.22-.62-.47-1.21-.8-1.74-1.1-1.77-3.51-2.89-4.29-4.77-.21-.49-.31-1.04-.24-1.66ZM459.73,513.56c5.19-4.72,14.26-10.77,20.22-15.18,28.23-20.88,58.14-39.59,86.85-59.79,1.3-.39,2.22.07,3.02.87.24.24.47.5.69.79-37.44,25.27-74.43,51.5-111.1,77.96-1.69-.02-2.28-.49-2.27-1.15.02-1.03,1.52-2.53,2.59-3.5ZM487.66,368.78c.2-1.43,1.89-2.39,2.51-3.92,1.14-2.78,1.59-7.75,3.57-9.89.97-1.04,10.31-6.09,13.07-6.5.35-.05.59-.03.7.08.06,4.85,1.16,8.94,3.05,12.82.9,1.87,2,3.69,3.26,5.53.23.35.47.69.72,1.04-6.84,4.04-2.62,9.13-3.8,15.36-5.47,1.85-12.15.3-16.7-3.22-2.01-1.54-4.91-5.24-5.98-8.44-.05-.11-.08-.21-.11-.31-.28-.92-.4-1.79-.29-2.55ZM482.73,379.72l5.64,8.15,1.87,1.48,3.95,3.15,3.01,2.38,1.14.91-2,17.97-.15,1.36c2.46-1.09,4.82-6.91,7.39-7.05.41-.02,1.48.29,2.93.8,1.13,4.82,1.31,13.71-13.35,12.29-13.8-1.34-19.16-9.36-21.15-14.2,4.1,1.24,8.07,2.85,12.06,4.67.72.33,1.45.67,2.18,1.02.24.11.48.22.72.34-2.15-10.96-4.75-22.02-4.24-33.27ZM418.98,513.2c-2.43-2.99-5.85-6.46-9.62-10.24-.05-.04-.09-.09-.13-.13-2.9-2.9-5.99-6-8.99-9.21-.26-.28-.52-.57-.78-.85-3.04-3.29-5.95-6.71-8.42-10.17-.23-.31-.45-.63-.66-.94-4.75-6.87-7.7-13.9-6.46-20.55,1.57-8.46,16.41-25.23,24.19-28.91.38-.18.73-.34,1.06-.48,5.91,4.49,13.72,11.09,18.1,17.49-5.85,4.82-12.37,8.03-19.86,7.6-2.85-.17-9.39-3.28-10.99-.39-.04.04-.06.08-.08.12,5.24,2.26,9.21,5.83,12.4,10.15.03.05.06.09.09.13,7.48,10.24,10.61,24.63,15.71,35.87.94,2.05,3.22,7.48,5.36,9.79.51.57,1.03.95,1.51,1.04,3.82.74,6.99-.41,11.64,1.1,2.91.94,6.94,3.66,9.39,6.93,2.01,2.69,2.94,5.75,1.29,8.49-.65,1.09-13.22,8.29-14.85,8.63-1.64.36-2.59-1.46-3.46-3.35-.5-1.12-.98-2.27-1.55-3.01-.16-.22-.34-.42-.52-.62-2.05-2.26-5-3.47-6.85-5.48-.69-.75-1.27-1.62-1.81-2.56-.2-.34-.39-.7-.58-1.06-1.52-2.98-2.78-6.49-5.13-9.39ZM401.52,554.47c8.13-5.69,16.21-11.58,23.84-17.93l1.69.57h0s.45.16.45.16c.42,1.65-1.5,2.91-2.51,3.86-10.77,10.15-31.94,24.14-44.71,33.17-8.23,5.82-17.26,12.08-25.77,17.42-1.14.71-7.87,5.16-8.44,4.66.64-.65,1.3-1.29,1.96-1.91,5.05-4.84,10.62-9.34,16.12-13.64,12.1-9.44,24.88-17.61,37.37-26.36ZM342.72,620.29c-5.96,3.1-14.27,1.39-18.48-3.85-.06-.07-.11-.14-.17-.21-5.36-6.77-7.21-14.15-.69-20.94,6.29-6.53,25.28-18.5,33.65-23.71,7.12-4.42,14.47-8.5,22.43-11.21.08-.03.17-.06.25-.09,1.11.68-.17,1.59-.72,2.11-7.37,6.85-22.78,15.03-31.73,21.38-4.83,3.43-20.27,13.56-23.16,17.19-3.33,4.17-2.35,10.21.8,14.29.9,1.18,2,2.2,3.23,2.96,3.72,2.31,6.01,1.66,9.93.26,8.38-3.01,43.04-29.7,49.44-36.95.9-1.02,1.92-2.32,2.62-3.64.12-.22.22-.44.32-.66.04-.09.07-.18.1-.27h0c.06-.14.11-.26.15-.39,1.34-.12.64,1.43.32,2.1-1.08,2.23-4.95,6.97-6.78,8.8-11.67,11.64-29.5,20.99-41.51,32.83ZM336.19,611.64c-2.4,2.43-4.96,1.7-6.5-.05,0,0-.01,0-.02-.01-2.03-2.32-2.27-6.41,2.05-7.29,1.71-.34,3.19.07,4.24.89,1.88,1.48,2.36,4.3.23,6.46Z"></path>
  <path class="st4" d="M764.49,457.83v-.02c-.05-5.8-.46-11.57-1.38-17.2-.85-.2-1.27.26-1.9.56-10.16,4.73-23.07,14.87-33.72,20.8-64.17,35.71-135.61,54.27-208.58,61.73l-2.59.26-47.7,4.85c-1.64,2.35-2.28,5.14-3.71,7.62-.67,1.16-1.38,1.97-1.74,2.51-.7,1.02-.14,1.09,4.33.79,45.23-3,89.92-7.9,134.05-18.18,54.03-12.58,107.51-31.36,152.72-63.95.05.54.06,1.09.01,1.63h0c-.56,9.58-13.21,18.73-20.39,24.02-72.98,53.74-186.19,65.9-274.21,69.91-9.12.42-18.45,2.38-27.54.72-3.01,2.88-6.82,5.31-10.58,7.73h0c-3.3,2.12-6.55,4.21-9.15,6.58-.49.45-1.05.57-1.21,1.11-.07.21-.07.49.02.88,13.8,1.07,27.58,3.41,41.39,4.28,68.59,4.32,135.45-16,203.95-12.77,11.3.54,23.98,2.29,35.32,3.63,3.71.43,13.91,2.67,18.23,2.57.56,0,1.02-.05,1.36-.15,2.22-.65,11.86-8.61,14.14-10.65.29-.26.58-.52.86-.79,21.46-19.53,33.08-46.36,36.57-75.07.93-7.65,1.53-15.55,1.46-23.4Z"></path>
  <path class="st2" d="M515.26,522.75c-1.9-4.93.19-23.22.38-27.34,0-.1.01-.2.01-.28l-47.03,33.68,47.7-4.85c-.45-.08-.8-.51-1.06-1.21Z"></path>
  <path class="st4" d="M296.88,508.58c-1.7.32-.53,9.2-.29,10.89.04.29.08.57.13.86,1.37,8.73,4.99,17.59,9.91,25.35.27.42.54.84.81,1.25.01.02.03.05.05.07,1.77,2.67,3.69,5.2,5.73,7.54.02.03.04.05.06.08.42.48.84.95,1.27,1.41,2.57,2.78,4.91,4.41,7.28,5.46,4.64,2.06,9.34,1.82,15.87,3.46h.01c.34.08.68.17,1.02.26l32.12-16.97c-.35-.04-.71-.09-1.07-.15h-.01c-2.49-.38-5.03-.96-7.42-1.62-14.98-4.14-44.16-10.72-54.53-21.94-.59-.65-1.36-1.07-1.43-1.91-.03-.17-.02-.37.03-.58,26.99,13.33,57.74,15.22,86.89,21.09l17.18-12.24c-.35-.41-.73-.67-1.15-.84-.27-.1-.56-.16-.86-.19-1.64-.16-3.6.68-5.38.71-35.47.67-74.27-6.74-106.22-21.99Z"></path>
  <polygon class="st2" points="650.54 488.04 694.43 469.64 652.67 473.18 650.54 488.04"></polygon>
  <path class="st2" d="M403.42,524.86c-.78-1.81-5.51-10.93-6.7-11.07-11.6,3.52-23.85,3.14-35.78,4.71l42.48,6.36Z"></path>
  <path class="st2" d="M448.91,528.83c.35.75,1.16,1.35,1.95,1.7.11-.61-.1-1.17-.48-1.64-.56-1.49-2.3-3.59-2.75-3.11-.22.45.49,1.92,1.27,3.03t.01.02Z"></path>
  <path class="st2" d="M441.97,533.87s0,.01.01.01c.12.07.25.13.38.19.23-1.28-.96-2.32-2.11-2.83-.06.36-.02.7.11,1.01.27.68.92,1.24,1.61,1.62Z"></path>
  <path class="st2" d="M579.02,391.75l-14.16,8.48c5.19-1.79,10.29-4.55,14.16-8.48Z"></path>
  <path class="st4" d="M276.21,680.93c0-12.62-9.31-24.14-27.24-24.14h-34.25v70.1h19.83v-22.73h6.91l16.32,22.73h21.83v-1.2l-18.23-23.63c11.82-5.21,14.82-12.52,14.82-21.13ZM249.17,689.44h-14.62v-16.82h14.42c5.21,0,7.71,4.31,7.71,8.71s-2.3,8.11-7.51,8.11Z"></path>
  <polygon class="st4" points="309.46 699.55 342.6 699.55 342.6 683.43 309.46 683.43 309.46 673.42 344.61 673.42 344.61 656.79 289.93 656.79 289.93 726.89 346.01 726.89 346.01 710.17 309.46 710.17 309.46 699.55"></polygon>
  <path class="st4" d="M425.32,691.34c0-19.33-11.92-34.55-36.65-34.55h-30.04v70.1h30.04c25.14,0,36.65-16.22,36.65-35.55ZM378.25,673.32h10.41c12.12,0,17.02,8.21,17.02,17.83s-4.41,19.03-17.02,19.03h-10.41v-36.85Z"></path>
  <path class="st4" d="M456.16,692.34c.1,19.03,10.82,36.35,38.35,36.35,10.62,0,20.23-3.1,28.14-10.92l-11.62-13.02c-5.01,5.11-11.82,7.11-16.52,7.11-13.82,0-18.63-10.32-18.73-19.43-.1-9.11,5.21-20.13,18.73-20.13,4.71,0,9.91,1.3,14.92,6.11l12.22-12.02c-7.91-7.71-17.02-11.22-27.14-11.22-26.34,0-38.46,19.13-38.35,37.15Z"></path>
  <path class="st4" d="M575.02,656.79h-20.03l-31.44,70.1h21.03l4.61-11.52h31.35l4.61,11.52h21.23l-31.34-70.1ZM555.9,698.75l9.01-22.33,8.91,22.33h-17.93Z"></path>
  <path class="st4" d="M679.17,656.79h-19.93v24.03c.1,2.7.1,5.91.6,14.32l-29.64-38.35h-16.82v70.1h20.03v-22.43l-.3-15.32,29.24,37.75h16.82v-70.1Z"></path>
  <path class="st4" d="M729.84,655.09c-22.93,0-38.96,13.72-38.96,36.75s16.02,36.75,38.96,36.75,38.96-13.32,38.96-36.75-15.92-36.75-38.96-36.75ZM729.84,711.67c-11.22,0-19.13-8.11-19.13-19.83s7.81-19.83,19.13-19.83,19.13,7.81,19.13,19.83-7.51,19.83-19.13,19.83Z"></path>
  <polygon class="st4" points="800.03 699.55 833.18 699.55 833.18 683.43 800.03 683.43 800.03 673.42 835.18 673.42 835.18 656.79 780.5 656.79 780.5 726.89 836.59 726.89 836.59 710.17 800.03 710.17 800.03 699.55"></polygon>
  <path class="st2" d="M333.41,736.55v34.13h9.65v-9.22h6.92c9.12-.1,13.7-5.51,13.7-12.48,0-4.27-1.87-8.16-5.6-10.41-2.1-1.27-4.8-2.02-8.1-2.02h-16.58ZM349.99,753.32h-6.92v-8.48h6.92c2.63,0,4.05,2.05,4.05,4.29s-1.36,4.19-4.05,4.19Z"></path>
  <polygon class="st2" points="368.67 736.55 368.67 738.57 368.67 770.68 394.66 770.68 394.66 762.49 378.32 762.49 378.32 738.57 378.32 736.55 368.67 736.55"></polygon>
  <path class="st2" d="M430.89,755.66v-19.07h-9.61v19.07c0,5.17-2.58,7.51-6.48,7.51s-6.49-2.24-6.49-7.61v-18.97h-9.61v18.97c0,4.31,1.05,7.75,2.98,10.32,2.74,3.65,7.24,5.53,13.11,5.53,1.31,0,2.55-.1,3.73-.3,7.77-1.27,12.41-6.69,12.36-15.45Z"></path>
  <polygon class="st2" points="476.09 736.55 466.05 736.55 457.07 748.1 448.1 736.55 438.01 736.55 438.01 770.68 447.57 770.68 447.57 750.4 456.1 760.68 457.81 760.68 466.53 750.35 466.53 770.68 476.09 770.68 476.09 736.55"></polygon>
  <path class="st2" d="M509.79,752.74c2.97-1.36,3.75-4.05,3.75-6.63,0-6.53-5.56-9.56-12.39-9.56h-17.46v34.13h17.6c6.24-.05,13.21-2.34,13.21-10,0-3.07-1.56-6.24-4.73-7.95ZM493.21,744.35h7.8c1.9,0,2.97,1.17,2.97,2.68s-1.07,2.53-3.07,2.53h-7.7v-5.22ZM501.35,763.17h-8.14v-6.49h8.14c2.39,0,3.61,1.41,3.61,3.27s-1.17,3.22-3.61,3.22Z"></path>
  <rect class="st2" x="520.42" y="736.55" width="9.61" height="34.13"></rect>
  <path class="st2" d="M559.97,736.55v11.7c.05,1.32.05,2.88.29,6.97l-14.43-18.68h-8.19v34.13h9.75v-10.92l-.15-7.46,14.24,18.38h8.19v-34.13h-9.7Z"></path>
  <path class="st2" d="M608.68,764.93v-15.16h-16.68v7.56h8.63v4.39c-1.95,1.41-4.78,1.76-6.58,1.76-6.88,0-9.17-5.41-9.17-9.8,0-6.68,3.61-10,9.17-10,2.29,0,5.31.63,7.8,2.97l5.61-5.56c-4.49-4.53-8.68-5.51-13.41-5.51-12.82,0-18.68,9.17-18.68,18.09,0,6.55,2.77,13.14,9.58,16.19,2.47,1.11,5.45,1.76,9.04,1.76,5.03,0,9.68-1.37,12.56-3.95.89-.8,1.61-1.71,2.12-2.73Z"></path>
  <polygon class="st2" points="635.55 736.55 625.9 736.55 625.9 765.4 625.9 770.68 651.89 770.68 651.89 762.49 641.84 762.49 635.55 762.49 635.55 736.55"></polygon>
  <polygon class="st2" points="656.81 736.55 656.81 738.57 656.81 770.68 682.8 770.68 682.8 762.49 666.47 762.49 666.47 738.57 666.47 736.55 656.81 736.55"></polygon>
  <path class="st2" d="M704.16,735.77c-12.82,0-18.72,9.31-18.68,18.09.05,9.26,5.27,17.7,18.68,17.7,5.17,0,9.85-1.51,13.7-5.32l-5.66-6.34c-2.44,2.49-5.75,3.46-8.05,3.46-6.73,0-9.07-5.02-9.12-9.46-.05-4.44,2.54-9.8,9.12-9.8,2.29,0,4.83.63,7.27,2.97l5.95-5.85c-1.34-1.3-2.75-2.34-4.22-3.17-1.86-1.04-3.83-1.71-5.9-2.04-1.01-.16-2.04-.26-3.1-.26Z"></path>
  <path class="st2" d="M233.64,644.79l-3.3-3.7c-1.42,1.45-3.36,2.02-4.69,2.02-3.92,0-5.29-2.93-5.32-5.52-.03-2.59,1.48-5.72,5.32-5.72,1.34,0,2.82.37,4.24,1.73l3.47-3.41c-2.25-2.19-4.83-3.18-7.71-3.18-7.48,0-10.92,5.43-10.89,10.55.03,5.4,3.07,10.32,10.89,10.32,3.01,0,5.74-.88,7.99-3.1Z"></path>
  <polygon class="st2" points="236.34 647.41 241.97 647.41 241.97 639.88 249.14 639.88 249.14 647.41 254.71 647.41 254.71 627.51 249.14 627.51 249.14 635.07 241.97 635.07 241.97 627.51 236.34 627.51 236.34 647.41"></polygon>
  <path class="st2" d="M256.7,647.38h5.97l1.31-3.27h8.9l1.31,3.27h6.03l-8.9-19.9h-5.69l-8.93,19.9ZM268.45,633.05l2.53,6.34h-5.09l2.56-6.34Z"></path>
  <path class="st2" d="M289.63,643.15c-1.68,0-3.87-.34-5.83-2.25l-3.1,3.55c2.76,2.9,5.32,3.53,8.9,3.5,4.46-.03,8.73-1.96,8.73-6.48s-4.12-6.17-8.07-6.6c-1.96-.2-3.3-.4-3.3-1.76,0-1.05,1.34-1.48,2.7-1.48,1.73,0,3.3.34,4.66,1.36l2.79-3.55c-2.13-1.68-4.46-2.36-7.45-2.36-4.21,0-8.33,1.82-8.33,6.03,0,4.95,3.75,6.06,8.1,6.45,2.19.2,3.33.83,3.33,1.82,0,1.11-1.28,1.76-3.13,1.76Z"></path>
  <polygon class="st2" points="301.4 647.38 317.32 647.38 317.32 642.63 306.95 642.63 306.95 639.62 316.36 639.62 316.36 635.04 306.95 635.04 306.95 632.2 316.93 632.2 316.93 627.48 301.4 627.48 301.4 647.38"></polygon>
  <path class="st2" d="M334.19,647.81c6.11,0,9.44-3.78,9.44-9.01v-11.32h-10.92v4.72h5.29v6.57c0,2.7-1.39,4.15-3.75,4.15-1.96,0-3.61-1.14-3.67-4.12h-5.49c0,6.23,3.36,9.01,9.1,9.01Z"></path>
  <path class="st2" d="M344.65,647.38h5.97l1.31-3.27h8.9l1.31,3.27h6.03l-8.9-19.9h-5.69l-8.93,19.9ZM356.39,633.05l2.53,6.34h-5.09l2.56-6.34Z"></path>
  <path class="st2" d="M370.15,647.38h5.63v-6.45h1.96l4.63,6.45h6.2v-.34l-5.18-6.71c3.36-1.48,4.21-3.55,4.21-6,0-3.58-2.64-6.85-7.73-6.85h-9.72v19.9ZM375.78,631.97h4.09c1.48,0,2.19,1.22,2.19,2.47s-.65,2.3-2.13,2.3h-4.15v-4.78Z"></path>
  <path class="st2" d="M391.51,647.38h5.63v-6.45h1.96l4.63,6.45h6.2v-.34l-5.17-6.71c3.36-1.48,4.21-3.55,4.21-6,0-3.58-2.64-6.85-7.73-6.85h-9.72v19.9ZM397.14,631.97h4.09c1.48,0,2.19,1.22,2.19,2.47s-.65,2.3-2.13,2.3h-4.15v-4.78Z"></path>
  <polygon class="st2" points="428.78 642.63 418.41 642.63 418.41 639.62 427.82 639.62 427.82 635.04 418.41 635.04 418.41 632.2 428.39 632.2 428.39 627.48 412.86 627.48 412.86 647.38 428.78 647.38 428.78 642.63"></polygon>
  <polygon class="st2" points="436.58 647.38 442.18 647.38 442.18 632.11 448.01 632.11 448.01 627.48 430.78 627.48 430.78 632.11 436.58 632.11 436.58 647.38"></polygon>
  <polygon class="st2" points="455.06 647.38 460.66 647.38 460.66 632.11 466.49 632.11 466.49 627.48 449.26 627.48 449.26 632.11 455.06 632.11 455.06 647.38"></polygon>
  <rect class="st2" x="468.76" y="627.45" width="4.27" height="7.76"></rect>
  <path class="st2" d="M484.26,639.56c2.19.2,3.33.83,3.33,1.82,0,1.11-1.28,1.76-3.13,1.76-1.68,0-3.87-.34-5.83-2.25l-3.1,3.55c2.76,2.9,5.32,3.53,8.9,3.5,4.46-.03,8.73-1.96,8.73-6.48s-4.12-6.17-8.08-6.6c-1.96-.2-3.3-.4-3.3-1.76,0-1.05,1.34-1.48,2.7-1.48,1.73,0,3.3.34,4.66,1.36l2.79-3.55c-2.13-1.68-4.46-2.36-7.45-2.36-4.21,0-8.33,1.82-8.33,6.03,0,4.95,3.75,6.06,8.1,6.45Z"></path>
</svg></svg></g></g></svg></g></svg>