<?xml version="1.0" encoding="UTF-8"?>
<!DOCTYPE svg PUBLIC "-//W3C//DTD SVG 1.1//EN" "http://www.w3.org/Graphics/SVG/1.1/DTD/svg11.dtd">
<!-- Creator: CorelDRAW X8 -->
<svg xmlns="http://www.w3.org/2000/svg" xml:space="preserve" width="2.36887in" height="2.96in" version="1.1" style="shape-rendering:geometricPrecision; text-rendering:geometricPrecision; image-rendering:optimizeQuality; fill-rule:evenodd; clip-rule:evenodd"
viewBox="0 0 1739 2173"
 xmlns:xlink="http://www.w3.org/1999/xlink">
 <defs>
  <style type="text/css">
   <![CDATA[
    .fil8 {fill:#727376}
    .fil0 {fill:#D7494D}
    .fil2 {fill:#62C8CB}
    .fil6 {fill:#73A9AB}
    .fil7 {fill:gray}
    .fil3 {fill:#E96E41}
    .fil4 {fill:#E99542}
    .fil5 {fill:#F0C334}
    .fil10 {fill:#A9ABAE;fill-rule:nonzero}
    .fil9 {fill:#F3B0B2;fill-rule:nonzero}
    .fil1 {fill:#262626;fill-rule:nonzero}
   ]]>
  </style>
 </defs>
 <g id="Layer_x0020_1">
  <metadata id="CorelCorpID_0Corel-Layer"/>
  <g id="_2271866633568">
   <path class="fil0" d="M785 1899c-21,0 -35,-4 -43,-12 -9,-8 -13,-22 -13,-42 0,-43 0,-86 0,-129 0,-44 0,-87 0,-130 0,-14 4,-25 12,-32 8,-8 18,-12 30,-12 37,0 74,0 111,0 0,22 0,44 0,67 -24,0 -49,0 -73,0 -4,0 -7,2 -7,7 0,35 0,70 0,104 0,35 0,70 0,105 0,5 3,7 7,7 23,0 45,0 68,0 -4,22 -8,44 -13,66 -26,0 -53,0 -79,1zm197 -44c-2,15 -4,30 -6,44 -24,0 -48,-1 -72,-1 11,-59 21,-118 32,-178 11,-59 21,-118 32,-178 26,0 51,0 76,0 11,60 22,120 32,181 11,60 22,121 33,182 -24,-2 -48,-3 -72,-4 -2,-15 -4,-30 -6,-44 -17,-1 -33,-1 -49,-2zm8 -56c11,0 22,0 33,0 -3,-21 -6,-42 -8,-63 -3,-21 -6,-43 -8,-64 -3,21 -6,42 -9,63 -2,22 -5,43 -8,64zm146 -257c22,0 45,0 67,0 6,25 13,50 19,75 5,25 12,50 18,75 0,-25 0,-50 0,-75 0,-25 0,-50 0,-75 24,0 49,0 73,0 0,64 0,127 0,190 0,63 0,127 0,190 -24,-3 -49,-5 -73,-8 -7,-26 -13,-52 -19,-79 -7,-26 -13,-52 -19,-78 0,26 0,51 0,77 0,26 0,51 0,77 -22,-2 -44,-3 -66,-5 0,-60 0,-121 0,-182 0,-60 0,-121 0,-182zm293 69c-4,0 -6,3 -6,8 0,40 0,80 0,120 0,40 0,80 0,120 0,3 0,5 1,6 0,2 2,2 5,3 9,1 18,2 27,3 3,1 5,0 6,-1 1,-1 1,-3 1,-6 0,-41 0,-81 0,-122 0,-41 0,-81 0,-122 0,-5 -2,-8 -6,-8 -10,0 -19,0 -28,-1zm106 285c0,8 0,15 -2,22 -2,7 -5,12 -8,17 -4,4 -10,8 -16,10 -7,2 -15,2 -25,1 -27,-5 -55,-9 -82,-13 -10,-1 -18,-4 -25,-8 -6,-4 -11,-8 -15,-14 -4,-5 -7,-11 -9,-18 -1,-7 -2,-14 -2,-21 0,-47 0,-93 0,-140 0,-47 0,-93 0,-140 0,-15 4,-27 11,-36 8,-9 20,-14 37,-14 29,0 59,0 88,0 17,0 29,5 37,15 8,9 11,22 11,39 0,50 0,100 0,150 0,50 0,100 0,150zm-1314 -354c55,0 110,0 165,0 0,24 0,48 0,72 -30,0 -61,1 -92,2 0,31 0,63 0,94 20,-1 39,-3 59,-4 0,23 0,45 0,67 -20,2 -39,3 -59,5 0,29 0,58 0,86 31,-3 62,-7 92,-10 0,24 0,47 0,71 -55,7 -110,16 -165,25 0,-68 0,-136 0,-204 0,-68 0,-136 0,-204zm-150 77c0,25 0,51 0,76 0,25 0,50 0,75 12,-1 23,-2 35,-4 5,0 7,-4 7,-10 0,-21 0,-43 0,-65 0,-21 0,-43 0,-65 0,-6 -2,-8 -7,-8 -12,0 -23,1 -35,1zm112 169c0,9 -3,18 -8,26 -5,9 -13,14 -24,15 6,22 12,43 19,64 6,21 12,42 18,63 -24,5 -49,10 -73,15 -6,-22 -12,-43 -17,-65 -6,-22 -12,-44 -18,-66 -3,0 -6,1 -9,1 0,23 0,47 0,70 0,23 0,46 0,70 -24,5 -47,11 -71,17 0,-76 0,-152 0,-228 0,-76 0,-152 0,-228 45,0 90,0 135,0 17,0 29,5 36,15 8,10 12,23 12,39 0,32 0,64 0,96 0,32 0,64 0,96zm312 -181c0,41 0,81 0,121 0,40 0,80 0,121 11,-1 22,-2 33,-3 3,0 5,-1 6,-2 1,-1 1,-3 1,-6 0,-37 0,-75 0,-112 0,-37 0,-75 0,-112 0,-5 -2,-7 -6,-7 -12,0 -23,0 -34,0zm111 242c0,20 -4,35 -12,44 -9,9 -23,15 -44,16 -42,4 -84,7 -126,12 0,-63 0,-126 0,-189 0,-64 0,-127 0,-190 47,0 93,0 140,0 14,0 24,4 31,12 7,8 11,19 11,32 0,44 0,88 0,132 0,44 0,88 0,131zm967 -307c55,0 111,0 166,0 0,29 0,57 0,85 -31,-1 -62,-3 -92,-4 0,34 0,69 0,103 19,2 39,4 58,6 0,26 0,51 0,77 -19,-3 -39,-5 -58,-8 0,32 0,63 0,95 30,5 61,11 92,17 0,28 0,57 0,85 -55,-13 -111,-25 -166,-37 0,-69 0,-139 0,-209 0,-70 0,-140 0,-210z"/>
   <path class="fil1" d="M1279 2110l0 19 29 0c-3,14 -16,23 -31,23 -20,0 -36,-15 -36,-35 0,-20 16,-35 36,-35 11,0 22,5 28,13l16 -13c-9,-13 -26,-21 -45,-21 -32,0 -57,24 -57,56 0,32 24,56 57,56 31,0 55,-24 55,-55l0 -8 -52 0zm-118 -47l0 71 -49 -71 -22 0 0 108 22 0 0 -71 49 71 22 0 0 -108 -22 0zm-134 108l22 0 0 -108 -22 0 0 108zm-70 -19l-28 0 0 -28 28 0c8,0 14,6 14,14 0,8 -6,14 -14,14zm-3 -70c6,0 11,5 11,12 0,7 -5,12 -11,12l-25 0 0 -24 25 0zm21 32c7,-4 13,-13 13,-24 0,-16 -13,-27 -29,-27l-51 0 0 108 55 0c17,0 30,-12 30,-29 0,-13 -7,-25 -18,-28zm-135 -51l-31 56 -31 -56 -27 0 0 108 22 0 0 -74 30 55 12 0 30 -55 0 74 21 0 0 -108 -26 0zm-173 110c25,0 45,-19 45,-44l0 -66 -22 0 0 66c0,13 -10,23 -23,23 -13,0 -23,-10 -23,-23l0 -66 -22 0 0 66c0,25 19,44 45,44zm-119 -22l0 -88 -21 0 0 108 68 0 0 -20 -47 0zm-93 -36l-25 0 0 -32 25 0c9,0 15,7 15,16 0,9 -6,16 -15,16zm0 -52l-47 0 0 108 22 0 0 -36 25 0c21,0 38,-16 38,-36 0,-21 -17,-36 -38,-36zm1010 28c14,0 25,12 25,26 0,14 -11,26 -25,26 -14,0 -26,-12 -26,-26 0,-14 12,-26 26,-26zm-1191 0c14,0 26,12 26,26 0,14 -12,26 -26,26 -14,0 -26,-12 -26,-26 0,-14 12,-26 26,-26z"/>
   <path class="fil2" d="M601 963c-20,0 -39,-4 -56,-11 -13,-6 -24,-13 -35,-21 -10,8 -22,15 -34,21 -17,7 -36,11 -56,11 -17,0 -33,-3 -49,-8 28,67 68,128 119,178 97,97 231,157 379,157 149,0 283,-60 380,-157 51,-50 91,-111 118,-178 -15,5 -31,8 -48,8 -20,0 -39,-4 -56,-11 -12,-6 -24,-13 -34,-21 -11,8 -22,15 -35,21 -17,7 -36,11 -56,11 -43,-24 -75,-49 -91,-51 -8,-2 -77,68 -143,40 -12,-6 -24,-13 -35,-21 -10,8 -22,15 -34,21 -17,7 -36,11 -56,11 -20,0 -39,-4 -56,-11 -12,-6 -23,-13 -33,-21 -10,8 -21,15 -34,21 -17,7 -36,11 -55,11z"/>
   <path class="fil3" d="M1260 363c-100,-101 -238,-162 -391,-162 -152,0 -290,61 -391,162 -100,100 -161,238 -161,391 0,61 9,120 28,175l150 0c5,-1 8,-2 11,-4 21,-11 177,-15 198,-6 6,3 11,7 15,10l105 0c7,-5 15,-10 27,-15 5,-2 21,6 37,15l152 0c18,-5 24,-4 33,0l125 0c10,-3 19,-2 31,0l165 0c18,-55 28,-114 28,-175 0,-153 -62,-291 -162,-391z"/>
   <path class="fil4" d="M1138 488c-69,-69 -164,-112 -269,-112 -104,0 -199,43 -268,112 -69,68 -111,163 -111,268 0,59 13,115 37,164 49,-7 159,-9 177,-1 13,6 17,13 32,17l76 0c11,-5 19,-14 39,-22 6,-3 31,12 52,22l114 0c4,-2 9,-4 14,-5 39,-10 31,-4 65,5l86 0c10,-7 18,-9 27,-9 26,-51 40,-109 40,-171 0,-105 -42,-200 -111,-268z"/>
   <path class="fil5" d="M1018 605c-38,-38 -90,-61 -149,-61 -58,0 -110,23 -148,61 -38,38 -62,91 -62,149 0,58 24,111 62,149 12,12 26,23 42,32l50 0c11,-5 19,-13 38,-21 6,-3 30,11 51,21l74 0c16,-9 30,-20 42,-32 38,-38 62,-91 62,-149 0,-58 -24,-111 -62,-149z"/>
   <path class="fil1" d="M830 820l-241 0c-67,0 -123,-3 -158,-34 -11,16 -17,37 -17,59 0,31 13,59 33,79 -8,2 -18,3 -27,3 -15,0 -29,-3 -41,-8 -14,-6 -25,-15 -35,-25l-27 25c13,14 29,25 47,33 17,7 36,11 56,11 20,0 39,-4 56,-11 12,-6 24,-13 34,-21 11,8 22,15 35,21 17,7 36,11 56,11 19,0 38,-4 55,-11 13,-6 24,-13 34,-21 10,8 21,15 33,21 17,7 36,11 56,11 20,0 39,-4 56,-11 12,-6 24,-13 34,-21 11,8 23,15 35,21 17,7 36,11 56,11 19,0 38,-4 56,-11 12,-6 23,-13 33,-21 10,8 21,15 33,21 18,7 37,11 56,11 20,0 39,-4 56,-11 13,-6 24,-13 35,-21 10,8 22,15 34,21 17,7 36,11 56,11 20,0 39,-4 56,-11 18,-8 33,-19 46,-33l-26 -25c-10,10 -21,19 -35,25 -12,5 -26,8 -41,8 -10,0 -19,-1 -27,-3 20,-20 33,-48 33,-79 0,-22 -6,-43 -17,-59 -35,31 -91,34 -158,34l-320 0z"/>
   <path class="fil1" d="M869 168c162,0 308,66 414,172 106,106 172,252 172,414 0,161 -66,307 -172,413 -106,106 -252,172 -414,172 -161,0 -307,-66 -413,-172 -106,-106 -172,-252 -172,-413 0,-162 66,-308 172,-414 106,-106 252,-172 413,-172zm380 206c-97,-97 -231,-157 -380,-157 -148,0 -282,60 -379,157 -97,97 -158,231 -158,380 0,148 61,282 158,379 97,97 231,157 379,157 149,0 283,-60 380,-157 97,-97 157,-231 157,-379 0,-149 -60,-283 -157,-380z"/>
   <path class="fil6" d="M1309 843c0,-11 -2,-22 -6,-32 0,0 0,0 0,0 3,21 3,58 -12,86 18,-25 18,-44 18,-54z"/>
   <polygon class="fil7" points="670,769 608,785 662,777 "/>
   <path class="fil1" d="M421 1065c14,0 28,-3 40,-8 14,-6 26,-15 36,-25l13 -13 13 13c10,10 23,19 36,25 13,5 27,8 42,8 14,0 28,-3 41,-8 13,-6 25,-14 35,-25l13 -14 13 14c10,11 22,19 35,25 12,5 26,8 41,8 15,0 29,-3 42,-8 13,-6 25,-15 36,-25l12 -13 13 13c11,10 23,19 36,25 13,5 27,8 42,8 15,0 29,-3 41,-8 13,-6 25,-14 35,-25l13 -14 13 14c10,11 22,19 35,25 12,5 27,8 41,8 15,0 29,-3 42,-8 13,-6 25,-15 36,-25l13 -13 13 13c10,10 22,19 35,25 13,5 27,8 41,8 -8,12 -16,23 -25,34 -10,-2 -20,-5 -30,-9 -12,-6 -24,-13 -34,-21 -11,8 -22,15 -35,21 -17,7 -36,11 -56,11 -19,0 -38,-4 -56,-11 -12,-6 -23,-13 -33,-21 -10,8 -21,15 -33,21 -18,7 -37,11 -56,11 -20,0 -39,-4 -56,-11 -12,-6 -24,-13 -35,-21 -10,8 -22,15 -34,21 -17,7 -36,11 -56,11 -20,0 -39,-4 -56,-11 -12,-6 -23,-13 -33,-21 -10,8 -21,15 -34,21 -17,7 -36,11 -55,11 -20,0 -39,-4 -56,-11 -13,-6 -24,-13 -35,-21 -10,8 -22,15 -34,21 -10,4 -20,7 -30,9 -9,-11 -17,-22 -25,-34z"/>
   <path class="fil1" d="M547 1183c4,2 8,4 12,6 13,6 27,9 42,9 14,0 28,-3 41,-9 13,-6 25,-14 35,-24l13 -15 13 15c10,10 22,18 35,24 12,6 26,9 41,9 15,0 29,-3 42,-9 13,-6 25,-14 36,-25l12 -13 13 13c11,11 23,19 36,25 13,6 27,9 42,9 15,0 29,-3 41,-9 13,-6 25,-14 35,-24l13 -15 13 15c10,10 22,18 35,24 12,6 27,9 41,9 15,0 29,-3 42,-9 4,-2 8,-4 11,-6l0 40c-16,7 -34,11 -53,11 -19,0 -38,-4 -56,-12 -12,-5 -23,-12 -33,-20 -10,8 -21,15 -33,20 -18,8 -37,12 -56,12 -20,0 -39,-4 -56,-12 -12,-5 -24,-12 -35,-21 -10,9 -22,16 -34,21 -17,8 -36,12 -56,12 -20,0 -39,-4 -56,-12 -12,-5 -23,-12 -33,-20 -10,8 -21,15 -34,20 -17,8 -36,12 -55,12 -19,0 -37,-4 -54,-11l0 -40z"/>
   <path class="fil1" d="M1055 858c5,0 10,4 10,10l0 7c0,2 0,4 -1,6 1,1 2,3 2,5l0 7 5 0 2 3c8,11 12,19 12,32 0,15 -5,31 -15,41l-2 2 -3 1 1 27c1,40 -38,63 -74,49l-30 -12c-16,-5 -17,-14 -18,-29l0 -4 15 -11 6 0c2,-1 4,-2 6,-2 0,0 0,0 0,0l-1 -1 -1 0c-1,0 -2,0 -3,0 -1,0 -3,0 -4,-1 -1,0 -2,0 -3,0 -1,0 -3,0 -4,-1 -1,0 -2,0 -3,0 -6,0 -10,-6 -10,-11l1 -7c-4,-3 -6,-9 -6,-15l-18 -514c0,-16 12,-29 29,-30 16,-1 29,12 30,28l12 336c0,3 0,6 0,9 1,15 3,33 13,45 0,-1 0,-1 1,-2 -1,-1 -2,-3 -2,-5 0,-2 1,-4 1,-6 -1,-2 -1,-3 -1,-5 0,-2 0,-4 1,-6 -1,-2 -2,-4 -2,-6 0,-4 2,-7 6,-9 3,-8 11,-14 20,-14 8,0 17,4 21,12 3,2 6,5 6,10 0,2 0,4 -1,5 1,2 1,4 2,6 0,2 -1,4 -2,5 1,2 2,4 2,6 0,2 0,4 -1,5 1,2 1,4 1,6 0,2 0,4 -1,5 1,2 2,4 2,6 0,2 -1,4 -2,6 1,1 2,3 2,5 0,2 0,4 -1,6z"/>
   <path class="fil8" d="M1007 898l48 -2c2,0 3,-1 3,-3l0 -7c-1,-1 -2,-2 -3,-2l-3 0 0 -6 3 0c1,0 2,-1 2,-2l0 -8c0,-1 -1,-2 -3,-2l-48 1c-1,0 -2,2 -2,3l0 7c0,2 1,3 3,3l2 0 0 5 -2 0c-2,0 -3,2 -3,3l0 7c1,2 2,3 3,3z"/>
   <path class="fil8" d="M1045 861l0 -1 0 -2 -1 -2 1 0c2,0 3,-2 3,-4 0,-1 -2,-3 -3,-3l-1 0 0 -4 1 0c1,-1 3,-2 3,-4 0,-1 -2,-3 -4,-3l0 0 0 -5 0 0c2,0 3,-1 3,-3 0,-2 -1,-3 -3,-3l-1 0 0 -5 1 0c2,0 3,-1 3,-3 0,-2 -2,-3 -3,-3l-1 0 0 -5 0 0c2,0 4,-1 3,-3 0,-2 -1,-3 -3,-3l0 0 0 -5 0 0c2,0 3,-1 3,-3 0,-2 -1,-3 -3,-3l-1 0c-2,-7 -8,-11 -15,-11 -7,0 -13,5 -14,12l-1 0c-1,0 -3,1 -3,3 0,2 2,3 4,3l0 0 0 5 0 0c-2,0 -3,2 -3,3 0,2 1,3 3,3l0 0 0 5 0 0c-1,0 -3,2 -3,3 0,2 2,3 3,3l1 0 0 5 0 0c-2,0 -3,2 -3,3 0,2 1,4 3,4l0 0 0 4 0 0c0,0 0,0 0,0 2,1 4,2 7,3l3 1 5 18 16 0z"/>
   <path class="fil8" d="M1017 981l0 4c0,6 -2,11 -7,14l0 -1c0,-2 -1,-4 -3,-3 -2,0 -3,1 -3,3l0 3 -2 0 0 -3c-1,-1 -2,-3 -4,-3 -2,0 -3,2 -3,4l0 3 -2 0 0 -3c0,-2 -2,-3 -4,-3 -1,0 -3,2 -3,4l0 3 -2 0 0 -3c0,-2 -2,-3 -4,-3 -1,0 -3,2 -3,3l0 4 -2 0 0 -3c0,-2 -2,-3 -3,-3 -2,0 -4,1 -4,3l1 4 -3 0 0 -5 -5 0 -8 7c0,8 -2,17 12,22l30 12c30,12 64,-8 63,-42l-1 -28 -40 10z"/>
   <path class="fil0" d="M1067 901l-11 1 -1 0 -48 1 0 0 0 0c0,0 -1,0 -1,0 -4,0 -7,-4 -7,-7l0 -8c0,-2 0,-4 2,-5 -2,-2 -2,-3 -2,-5l-1 -8c0,-4 4,-8 8,-8l18 -1 -4 -14c-33,-9 -37,-43 -38,-64 0,-3 0,-6 0,-9l-12 -335c0,-12 -10,-21 -22,-21 -12,1 -21,10 -21,22l13 356 5 158c0,5 2,10 6,12l-1 10c0,2 1,3 3,3 1,0 2,-1 3,-2l0 -3 2 0 -1 3c0,2 1,3 3,3 1,0 2,-1 3,-2l0 -3 2 0 -1 3c0,2 1,3 3,3 1,0 2,-1 3,-2l0 -3 2 0 -1 3c0,0 0,0 0,1l0 0 0 0 1 0 0 0 0 0 0 0 0 0 0 0 0 0 0 0 0 0 0 0 0 1 0 0 0 0 0 0 0 0 0 0 0 0 0 0 0 0 0 0 0 0 0 0 0 0 0 0 0 0c0,0 1,1 1,1l0 0 0 0 0 0 0 0 0 0 1 0 0 0 0 0 0 0 0 0 0 0 0 0 0 0 0 0 0 0 0 0 0 0 0 0 0 0 0 0 0 0 1 0 0 0 0 0 0 0 0 0 0 0 0 0 0 0 0 0 0 0 1 0 0 -1 0 0 0 0 0 0 0 0 0 0 0 0 0 0 0 0 0 0 0 0 0 0 0 0 0 0 0 0 0 -1 0 0 0 0 0 0 0 0 0 0 1 0 0 0 0 0 0 0 0 0 0 0 0 0 0 -3 2 0 -1 3 0 0c0,0 0,1 0,1l1 0 0 0 0 0 0 0c0,1 0,1 0,1l0 0c0,0 0,0 1,1l0 0 0 0 0 0 0 0 0 0 0 0 0 0 0 0 0 0 0 0 0 0 1 0 0 0 0 0 0 0 0 0 0 0 0 0 0 0 0 0 0 0 0 0 0 0 0 0 0 0 0 0 0 0 1 0 0 0 0 0 0 0 0 0 0 0 0 0 0 0 0 0 0 0 0 0 0 0 0 0 0 0 0 0 0 0 0 0 1 0 0 0 0 -1 0 0 0 0 0 0 0 0 0 0 0 0 0 0 0 0 0 0 0 0 0 0 0 0 0 0 0 0 0 0 0 0 0 0 0 0 0 0 0 0 0 -1 0 0 0 0 0 0 0 0 0 0 1 0 0 0 0 0 0 0 0 0 0 0 0 0 0 0 0 -3 2 0 -1 3c0,2 1,3 3,3 1,0 2,-1 3,-2l0 -3 2 0 0 3c-1,1 0,3 2,3 1,0 2,-1 3,-2l0 -3 2 0 0 3c-1,1 0,3 2,3 1,0 3,-1 3,-2l0 -10 11 2 48 -12c8,-9 13,-23 13,-36 -1,-12 -4,-19 -10,-27z"/>
   <path class="fil1" d="M1058 0l29 8 -25 95 -30 -8 26 -95zm-351 95l-30 8 -25 -95 29 -8 26 95zm-312 170l-21 22 -70 -69 22 -22 69 69zm1236 684l-8 30 -95 -25 8 -30 95 25zm-1420 -380l-8 29 -95 -25 8 -29 95 25zm1412 -25l8 29 -95 25 -8 -29 95 -25zm-1420 380l8 30 -95 25 -8 -30 95 -25zm1210 -728l22 22 -70 69 -21 -22 69 -69z"/>
   <path class="fil1" d="M974 712l1 -49c6,0 7,2 10,9l4 10c4,13 -3,21 -15,30z"/>
   <path class="fil1" d="M770 613l-33 23c-17,11 -21,10 -26,9 -8,-1 -17,-1 -24,3 -6,3 -10,8 -13,13 -1,3 -2,5 -6,9l-100 93c-4,3 -9,8 -6,16l-13 11c-14,13 -15,32 -9,40l200 0c14,-12 24,-34 25,-56 1,-9 -1,-11 -10,-10l-12 1 -135 20 62 -16 20 -18c7,-1 17,-6 21,-10l14 -12c19,19 37,18 60,17 9,7 22,12 34,5 6,-4 12,-4 18,-4 7,1 15,1 24,-3 19,-9 43,-17 62,-25 13,0 44,0 57,-12 -3,-8 0,-35 -2,-43 -27,4 -42,31 -51,39 -34,0 -74,7 -103,24 -5,4 -9,4 -13,-1 -11,-14 -21,-17 -40,-20 -6,-11 -14,-15 -24,-17 -7,-2 -7,-7 -4,-10l20 -23c-3,11 -3,18 -1,24 6,17 29,8 43,-6 2,-1 4,-3 6,-5l5 4c3,3 6,0 6,-2l4 -22c10,-15 18,-35 11,-52 24,-6 36,-19 47,-39 16,-13 29,-28 46,-42l-1 -20c-19,8 -38,21 -52,43 -34,9 -50,28 -58,44 -17,-5 -41,5 -49,30z"/>
   <path class="fil7" d="M900 716c-23,0 -47,5 -67,18 17,-8 44,-15 67,-18z"/>
   <path class="fil9" d="M1037 960l21 -5c6,-7 9,-17 9,-26 -1,-7 -2,-11 -5,-16 1,3 1,6 2,9 0,9 -3,22 -8,29l-19 9z"/>
   <path class="fil9" d="M998 854c-8,2 -14,7 -14,14 1,8 1,16 1,25 0,7 3,12 9,15 -3,-4 -5,-8 -5,-12 -1,-9 -1,-17 -1,-25 0,-7 4,-14 10,-17z"/>
   <path class="fil9" d="M961 949c-5,-81 -10,-136 -14,-217 3,81 6,136 8,218 1,15 25,18 41,19 -11,-2 -34,-7 -35,-20z"/>
   <path class="fil10" d="M1047 991c1,29 -30,47 -53,38l4 2c24,9 51,-5 50,-32l-1 -8zm-19 -158l-2 -34 0 -1c1,-2 3,-3 5,-3 -1,-1 -2,-2 -4,-2 -2,0 -3,2 -4,4l0 1 1 34 4 1zm16 52l2 -1 1 0 0 -6 -2 0 -2 0 0 7 1 0z"/>
   <path class="fil7" d="M437 811c-3,10 -5,21 -5,32 0,10 1,19 4,28 -1,-6 -2,-12 -2,-18 0,-11 2,-24 6,-34 41,24 93,23 140,23 58,0 223,-2 282,-6l-273 0c-48,0 -108,0 -152,-25zm525 -135c8,-2 14,-3 17,7l1 3c2,5 0,12 -5,15 3,-6 3,-10 0,-18 -2,-3 -5,-8 -12,-6l-1 -1zm-153 -81c22,4 18,28 10,45 6,-9 12,-22 10,-32 -1,-7 -5,-13 -15,-15 -6,-2 -12,0 -17,3 4,-2 8,-2 12,-1zm20 -8c12,-13 29,-27 46,-37 -20,7 -36,18 -46,37zm-69 128l2 5 5 1c13,2 21,2 29,9 6,5 10,7 14,8 -2,-1 -5,-3 -7,-6 -10,-12 -18,-13 -34,-15l-5 -1 -2 -4c-4,-8 -9,-11 -18,-13l0 0c-11,-3 -16,-13 -12,-22 -7,10 -3,23 10,26l0 0c9,2 13,5 18,12zm-84 -32c5,-5 10,-11 13,-16 3,-7 13,-9 20,-8 9,2 21,-4 28,-11 -9,6 -17,10 -28,8 -6,-2 -12,-1 -17,1 -4,2 -7,5 -9,9 -2,5 -4,8 -8,12l-46 42 47 -37zm79 91l-126 19 118 -11c-1,8 -2,20 -6,31 8,-12 13,-26 14,-39zm-208 39c8,-14 26,-23 32,-28 -3,-5 -5,-10 -1,-18 -6,5 -7,9 -4,16l-18 15c-3,3 -7,9 -9,15z"/>
   <path class="fil1" d="M956 460c0,3 -3,6 -6,7 -4,0 -7,-3 -7,-7l-1 -20c0,-4 3,-7 6,-7 4,0 7,3 7,6l1 21z"/>
   <path class="fil1" d="M957 490l13 10c5,0 6,-1 8,-6l4 -8c3,-8 -1,-16 -13,-22 -12,-6 -23,17 -12,26z"/>
   <path class="fil7" d="M962 474c-4,4 -6,8 0,12l5 4c2,3 8,3 9,-2 -4,3 -9,-1 -12,-5 -2,-2 -5,-5 -2,-9l0 0z"/>
  </g>
 </g>
</svg>
